<svg xmlns="http://www.w3.org/2000/svg" xmlns:xlink="http://www.w3.org/1999/xlink" width="0" height="0" style="position:absolute">
	
		<symbol id="icon_arrow" viewBox="0 0 16 16">
			<path fill-rule="evenodd" clip-rule="evenodd" d="M8 0l1.4 1.4L3.8 7H16v2H3.8l5.6 5.6L8 16 0 8l8-8z" fill="currentColor"></path>
		</symbol>
	
		<symbol id="icon_finish" viewBox="0 0 32 32">
			<path d="M31.063 0a.938.938 0 0 0-.938.938V2.51H1.875V.938A.937.937 0 1 0 0 .938v30.125a.937.937 0 1 0 1.875 0V19.447h28.25v11.614a.938.938 0 0 0 1.875 0V.938A.937.937 0 0 0 31.062 0zm-.938 10.041h-5.656V4.385h5.656v5.656zm-15.063 0H9.407V4.385h5.656v5.656zM1.876 11.916h5.656v5.657H1.875v-5.657zm15.063 0h5.656v5.657h-5.657v-5.657z" fill="#03918C"></path>
		</symbol>
	
		<symbol id="icon_timer" viewBox="0 0 77 90">
			<path d="M38 80c15.464 0 28-12.536 28-28S53.464 24 38 24 10 36.536 10 52s12.536 28 28 28z" fill="#E5E5E5"></path><path d="M68.361 28.103c.907.598 1.983.93 3.076.93A5.567 5.567 0 0 0 77 23.473a5.592 5.592 0 0 0-1.63-3.93l-7.763-7.755a5.565 5.565 0 0 0-9.495 3.93c0 1.11.325 2.17.927 3.075l-1.387 1.386a37.307 37.307 0 0 0-12.616-4.961v-2.154h.44c3.64 0 6.635-2.716 6.816-6.184a6.472 6.472 0 0 0-1.785-4.846A6.569 6.569 0 0 0 45.764 0H30.07c-3.64 0-6.634 2.716-6.815 6.182a6.48 6.48 0 0 0 1.785 4.846 6.568 6.568 0 0 0 4.744 2.037h.727v2.155C11.93 18.82-1.084 35.531.07 54.601c1.181 19.51 17.45 35.056 37.04 35.393.224.005.448.006.671.006 9.97 0 19.348-3.83 26.469-10.825 7.285-7.155 11.296-16.713 11.296-26.918a37.72 37.72 0 0 0-8.066-23.274l.88-.88zm4.283 24.155c0 9.42-3.703 18.244-10.427 24.847-6.723 6.602-15.613 10.159-25.057 9.986-18.08-.31-33.1-14.658-34.189-32.666-1.088-17.988 11.475-33.703 29.223-36.557l1.222-.196v-4.607h5.812V10.16h-9.444a3.6 3.6 0 0 1-2.636-1.132 3.595 3.595 0 0 1-.992-2.694c.099-1.892 1.856-3.432 3.914-3.432v.002h15.697c1.006 0 1.941.402 2.634 1.13a3.6 3.6 0 0 1 .993 2.695c-.1 1.891-1.857 3.431-3.916 3.431h-3.344v7.512l1.221.196a34.487 34.487 0 0 1 13.694 5.374l.99.66 2.982-2.978 1.877 1.875 2.055-2.052-3.155-3.152a2.635 2.635 0 0 1-.777-1.877 2.658 2.658 0 0 1 4.535-1.876l7.762 7.756c.496.493.78 1.178.78 1.877a2.66 2.66 0 0 1-2.658 2.655 2.68 2.68 0 0 1-1.879-.779l-1.275-1.274-4.73 4.724.862 1.018a34.818 34.818 0 0 1 8.226 22.438z" fill="#E5E5E5"></path>
		</symbol>
	
		<symbol id="logo" viewBox="0 0 148 144">
			<path fill-rule="evenodd" clip-rule="evenodd" d="M34.013 20.754c.985.246 2.666.205 3.692.082l2.215-.082c2.173-.123 5.373-.533 7.547-.862l6.562-1.066c2.707-.451 6.112-1.64 8.327.861 1.19 1.354 1.353 3.61 1.148 5.374-.04.492.164 3.486.246 3.855.37 2.748 1.354 5.742 3.65 7.465 1.56 1.19 2.913 1.436 5.128 1.436 1.271 0 2.215-.37 3.158-.944 3.363-2.215 4.717-7.506 5.414-11.361.041-.328.164-.862.205-1.23.246.163.534.327.78.491.164.123.287.123.45.247 3.898 2.174 9.066 2.05 13.29.82.287-.082.492-.164.78-.205 0 .943.369 2.01.45 2.912.411 3.979.042 7.957-1.107 11.608-.697 2.297-1.927 4.43-3.363 6.316-1.354 1.805-3.117 3.405-5.004 4.676-2.338 1.559-4.922 2.871-7.67 3.61-.451.123-.82.246-1.272.328-5.168 1.23-10.418 1.476-15.709.574-4.594-.78-9.024-2.79-12.88-5.332-2.46-1.64-3.445-2.625-5.372-4.471-.164-.164-.37-.246-.164-.37 0 0 1.271-.122 1.394-.122 1.846-.205 5.496-.944 7.383-1.764.861-.37 1.19-.697 1.887-1.19l1.435 1.15c2.092 1.476 4.348 2.706 6.768 3.608l2.01.575c5.496 1.19 10.213.656 15.217-1.846a30.484 30.484 0 0 0 1.6-.861c.533-.328 1.107-.492 1.23-1.23.123-.657-.533-1.272-1.107-1.272-.533 0-1.969.943-2.584 1.23-1.272.656-2.666 1.23-4.102 1.6-1.723.41-3.24.615-5.086.738l-1.764-.082c-.615-.082-1.066-.123-1.681-.246-1.149-.205-2.01-.492-2.995-.82-2.953-.985-5.496-2.666-7.793-4.635-.533-.451-.943-.985-1.6-1.313-1.107-.574-2.542-.82-3.896-.82-.41 0-.492-.082-.902-.082-3.61-.041-8.368-1.6-11.28-4.06-.328-.288-.78-.575-1.025-.985.656 0 1.722.246 2.666.246 1.969 0 4.306-.37 5.824-.82 5.045-1.559 4.881-4.84 0-5.456-1.928-.246-3.404-.533-5.045-1.066a15.719 15.719 0 0 1-4.06-2.05c-.903-.657-1.272-1.15-1.97-1.847l-1.025-1.312zm61.484-6.48c0 1.066.082 3.732.205 4.593l.41 4.47c-.246.042-.369.124-.656.206-3.404.984-7.424 1.354-10.787.041-2.174-.861-2.461-1.518-3.2-1.928.165-.369.247-2.748.329-3.404.164-2.01.082-3.2.328-5.332.41-3.733 2.092-7.711 5.619-9.475 3.322-1.64 7.219-1.23 10.705-.451-.123.164-.246.287-.369.45-.123.165-.246.37-.369.534-1.846 2.707-2.215 7.096-2.215 10.295zM72.733 35.52c-1.846 0-2.707.082-4.225-1.108-.615-.45-1.312-1.517-1.64-2.255-.41-.944-.657-1.928-.862-2.954-.574-2.912-.04-5.209-.369-7.178a2.946 2.946 0 0 0-.205-.861c-1.436-4.881-5.373-5.906-9.885-4.963-.41.082-.82.205-1.23.287-.452.082-.903.164-1.313.246-4.84.944-14.602 2.42-19.114 1.805-1.107-.164-2.05-.656-2.625 0-.123.164-.328.492-.328.738 0 1.108 1.436 3.364 2.256 4.307.902 1.025 1.928 1.969 3.076 2.707.205.123.328.205.533.328.206.123.288.164.493.287.574.288 1.107.616 1.681.82 2.133.78 4.389 1.436 6.686 1.6.37.041 1.107.164 1.313.37-.493.122-1.108.615-2.83.984-2.175.451-5.21.656-7.384-.082-.738-.287-2.297-1.067-2.543-1.067-.574 0-1.148.575-1.148 1.149 0 .574 1.025 1.969 1.353 2.379.164.205.246.328.41.533.165.205.288.328.452.533.738.944 2.092 2.01 3.076 2.666 1.149.78 2.42 1.518 3.733 1.97l2.87.942c.534.124.985.247 1.56.37 1.066.205 2.296.41 3.404.41 2.338 0 2.42.369 3.363.451-.697.943-5.455 1.887-6.604 2.092-1.23.205-2.584.287-3.896.287-.656 0-2.297-.656-2.297 1.066 0 .862 3.527 4.266 4.348 4.881.287.206.492.41.738.616 1.066.902 2.174 1.763 3.404 2.543 1.23.82 2.502 1.517 3.815 2.215.205.082.287.164.451.246.78.369 1.518.738 2.297 1.025 3.158 1.108 4.799 1.764 8.408 2.256 3.692.533 8.122.451 11.731-.164 2.871-.492 5.537-1.148 8.121-2.256a29.725 29.725 0 0 0 4.512-2.42c4.02-2.707 7.178-6.357 9.065-10.828.123-.247.164-.41.246-.657 1.518-4.593 1.682-6.193 1.682-11.197 0-1.395-.205-2.666-.41-3.897-.329-1.887-.616-3.732-.739-5.66 0-.246-.04-.656-.082-.984-.04-.246-.04-.657-.082-.985l-.205-2.994c-.04-2.953.041-6.727.944-9.229.123-.369.369-.984.574-1.312a4.82 4.82 0 0 0 .369-.616c.451-.615 1.025-.902 1.764-1.148.492-.123.902-.492.902-1.066 0-.944-.779-1.149-1.436-1.354-5.373-1.805-11.361-2.297-16.12 1.23-1.107.82-2.05 2.051-2.747 3.24-.534.944-1.026 1.97-1.354 2.995-.533 1.928-.902 3.856-1.025 5.906-.041 1.149 0 2.215-.082 3.364-.246 3.035-.615 6.234-1.272 9.105-.533 2.297-2.297 8.286-5.578 8.286zm-9.844 97.824c.492-.123 2.01-.984 2.502-1.23.82-.451 1.723-.779 2.461-1.272l5.004-2.543c.123 0 2.092 1.108 2.379 1.272l1.19.656c.738.451 5.619 3.158 5.947 3.199v.165c-.41.082-.862.41-1.23.615l-7.794 4.101c-.328.165-.328.247-.615.123-.492-.246-9.475-4.798-9.885-4.922v-.164h.04zm-11.895 4.184c0-1.435.082-2.584.082-3.978v-4.061c.328.041 1.682.738 2.051.943l3.979 1.969c.369.164.615.328.943.492.328.164.78.328.984.574l-3.978 2.051c-.697.328-3.65 1.928-4.06 2.01zm43.888.82l-7.137-3.896c-.246-.123-.287-.164-.533-.287l-1.19-.574c.205-.288.739-.452 1.067-.616l7.916-4.183c.041 2.994-.123 6.521-.123 9.556zm-33.962-5.947c-.164 0-1.107-.533-1.312-.615l-.944-.492c-.164-.082-.205-.082-.369-.164-.287-.123-.328-.206-.656-.329-.287-.123-.37-.205-.656-.369-.246-.123-.452-.164-.698-.328l-4.635-2.297c-.41-.164-.943-.615-1.476-.615-1.108 0-.82 1.641-.82 2.748v1.764c0 .697-.083 1.066-.083 1.763v3.569c0 1.189-.533 2.748.903 2.748.328 0 1.107-.533 1.476-.656.288-.123.41-.246.698-.369.287-.123.45-.205.697-.37.246-.123.492-.246.697-.369l3.569-1.845a45.06 45.06 0 0 1 1.435-.698c2.256-1.107 1.764-1.312 2.912-.738 1.928.984 3.815 1.887 5.743 2.871.984.492 1.886.944 2.83 1.436.492.246.902.451 1.436.697 1.845.943 1.312.574 3.65-.574l8.408-4.471c.37-.205.41-.287.78-.082l7.629 4.184c.615.328 3.281 1.845 3.568 1.845 1.108 0 .903-1.476.903-2.584v-3.527c0-.656.082-1.026.082-1.682v-5.701c0-.656-.739-.943-1.682-.369-.246.123-.451.246-.697.369l-8.655 4.594c-2.01.984-.943.943-2.871 0-.287-.164-.41-.246-.697-.369-.287-.164-.41-.205-.698-.37l-6.316-3.445c-.697-.369-1.64-1.107-2.42-1.107-.246 0-1.846.902-2.215 1.066l-3.281 1.682c-.698.41-6.07 3.199-6.235 3.199zm76.127-37.243c0-1.066.574-2.338 1.23-2.83.124.164.247.328.37.533.82 1.23 1.066 2.79.369 4.102-.123.246-.164.369-.328.574-.123.205-.287.37-.37.574-.369-.246-.656-.82-.861-1.271-.205-.452-.41-1.026-.41-1.682zm2.748-4.676l1.19-.697c1.107-.533 2.42-.615 3.527-.041.328.164.902.574 1.107.82-1.558 1.026-2.83 1.559-4.634.738-.411-.123-1.026-.533-1.19-.82zm-8.859 0c.656-.164 1.025-1.148 3.281-1.148 1.066 0 1.846.697 2.502 1.148-.369.492-1.887 1.23-2.83 1.23-.985 0-2.42-.41-2.953-1.23zm6.111-4.184c0-1.025.574-2.338 1.23-2.83.862 1.313 1.149 1.518 1.149 3.282 0 .615-.41 1.517-.697 1.968-.123.206-.287.328-.37.575-.369-.247-.656-.82-.861-1.272-.246-.492-.451-1.066-.451-1.723zm-1.682-.45c0 1.23.164 1.599.164 1.968-.369-.041-.82-.246-1.517-.246-2.256 0-5.168 2.01-5.168 2.994 0 .123.082.328.164.451l1.722 1.477c.288.164.534.328.862.451 1.928.78 2.666.492 4.224.123-.574 1.067-.492 2.871-.041 4.02a7.03 7.03 0 0 0 .985 1.805c1.312 1.763 1.969 1.927 3.527-.616.903-1.435 1.149-3.035.616-4.676-.082-.246-.124-.287-.165-.492.493.123 1.313.451 2.133.37.862-.124 1.313-.165 2.01-.493.82-.369 2.789-1.477 2.789-2.46 0-.616-1.312-1.6-1.845-1.929-2.461-1.64-4.184-.656-4.84-.656.656-1.353-.123-3.855-1.026-5.086a5.184 5.184 0 0 0-.451-.533c-.574-.615-1.066-1.272-1.846-.574-1.148.902-2.297 2.543-2.297 4.101zM8.173 95.445c0-.902.328-1.6.738-2.215.164-.205.328-.369.41-.574.287.082.205.123.492.533.164.246.246.37.37.698.574 1.394.574 2.666-.247 3.896-.123.164-.328.41-.369.615h-.246c-.082-.246-1.148-1.558-1.148-2.953zm8.531-4.553c-1.19.615-2.338 1.764-4.594.78-.45-.206-.82-.493-1.23-.78.369-.533 1.887-1.19 2.912-1.271.574-.041 1.23.164 1.64.328.41.205 1.067.615 1.272.943zM4.974 92c-.985 0-2.42-.575-2.83-1.149.533-.82 2.747-1.722 4.511-.902.37.164.985.574 1.23.902C7.189 91.221 6.369 92 4.974 92zm3.199-5.374c0-.902.328-1.6.738-2.214.164-.205.328-.37.41-.575h.123c.041.206.246.41.37.616.943 1.394 1.025 3.117.081 4.511-.123.165-.328.41-.369.616H9.28c-.082-.246-.533-.739-.738-1.23-.123-.493-.37-1.231-.37-1.724zm-1.682-.41c0 1.108-.04.82.205 1.887-.492-.04-.656-.246-1.6-.246-1.23 0-2.296.41-3.076.902-.492.287-.697.493-1.148.82-1.6 1.231-.82 1.97.902 3.118 1.23.82 2.092.943 3.487.943.574 0 1.107-.205 1.6-.287-.78 1.6-.329 3.692.573 5.168.288.492 1.272 1.928 1.887 1.928s.82-.205 1.272-.78c1.107-1.394 1.722-2.214 1.722-4.306 0-.738-.205-1.517-.45-1.969 1.435.328.779.287 2.296.287 1.928 0 4.635-1.968 4.635-2.748v-.287c0-.492-2.297-2.748-4.799-2.748-.82 0-1.19.164-1.846.287 0-.41.164-.615.164-1.681 0-1.108-.45-2.133-.902-2.872-.287-.492-.492-.697-.78-1.107-1.066-1.395-1.558-.862-2.337-.041-.903.902-1.805 2.338-1.805 3.732z" fill="#13908B"></path><path fill-rule="evenodd" clip-rule="evenodd" d="M49.846 23.707c0 .492.492 1.066.984 1.066 2.42 0 3.897-.574 5.332-.697 0 .533-.082.738-.082 1.313 0 .492.082.738.082 1.312 0 1.887.616 5.25 1.395 7.096.533 1.313 1.19 2.543 2.05 3.61.534.656 2.257 2.502 3.159 2.502.574 0 1.148-.575 1.148-1.149 0-1.23-2.379-1.312-4.02-5.332-.245-.574-.41-1.107-.614-1.682-.78-2.42-1.026-6.152-.698-8.86.082-.655-.45-1.27-1.066-1.27l-4.184.697c-.656.082-1.477.205-2.174.287-.45.04-.656.04-.902.287-.205.123-.41.574-.41.82zm22.887 120.22c.533 0 5.988-2.912 7.178-3.528.574-.287 1.107-.574 1.722-.861l3.528-1.805c.287-.164.574-.287.861-.451 1.108-.574.492-1.682-.246-1.682-.287 0-1.312.575-1.64.739l-11.321 5.701c-.205 0-1.313-.615-1.6-.738l-6.48-3.282c-.246-.123-.534-.246-.82-.41-.288-.164-.534-.246-.821-.41-.287-.164-3.117-1.6-3.281-1.6-.944 0-1.272 1.026-.616 1.559l11.526 5.865c.328.164 1.682.903 2.01.903zm-12.346-13.413c.78 0 .984-.246 1.805-.697l9.392-4.758c.165-.082.246-.082.41-.164.985-.451.247-.615 2.257.369.533.287.984.492 1.517.779l8.245 4.184c.287.123 1.066.697 1.6.041.245-.328.245-.656.04-1.025-.205-.369-2.584-1.436-2.83-1.559l-6.686-3.363c-.574-.287-1.107-.574-1.681-.821a7.649 7.649 0 0 1-.82-.41c-1.313-.697-1.19-.287-2.83.492l-9.763 4.922c-.697.329-1.435.657-1.312 1.354.04.369.45.656.656.656z" fill="#13908B"></path><path fill-rule="evenodd" clip-rule="evenodd" d="M72.856 134.534l-1.969-.861c-.287-.123-.369-.206-.697-.288v-.164c.533-.123 2.42-1.23 2.543-1.271.37-.082 2.05 1.066 2.625 1.189v.164c-.492.164-2.297 1.231-2.502 1.231zm-5.537-1.19c0 .698.574.862 1.066 1.067.78.369 4.184 1.969 4.594 1.969.328 0 2.215-1.067 2.79-1.354.245-.123.45-.205.655-.328.739-.369 1.764-.779 1.764-1.354 0-.615-.123-.738-1.107-1.189-.698-.328-3.692-2.01-4.143-2.01-.37 0-4.635 2.215-5.127 2.502-.246.123-.492.369-.492.697zM53.373 47.825c0 .697.492.902.738 1.148.164.164.164.164.37.328 1.107.82 2.87 1.846 4.183 2.297.37.123.615.246.944.328 1.271.37 2.748.739 4.265.903.452.04.739.082 1.23.082.821 0 1.56.287 2.257-.205.574-.41.574-1.395 0-1.805-.287-.205-.575-.205-1.067-.205-7.465.041-10.746-3.732-11.484-3.979-.739-.205-1.436.41-1.436 1.108zm35.274-40.32v.452c0 1.517 2.174 2.502 3.487 1.271 1.312-1.23.492-3.61-1.436-3.61-.984 0-2.05.862-2.05 1.887zm3.979 22.026c0 .862.738 1.518 1.313 1.518h.369c1.804 0 1.845-3.035-.164-3.035-.78-.041-1.518.697-1.518 1.517zm-5.496.369c0 2.092 3.035 2.092 3.035 0 0-.738-.656-1.435-1.354-1.435-.492 0-.82 0-1.271.492-.246.205-.41.533-.41.944zm-5.578-1.394v.451c0 1.149 1.558 1.805 2.46 1.026 1.026-.903.493-2.707-1.025-2.707-.615.04-1.435.656-1.435 1.23z" fill="#13908B"></path><path d="M114.942 73.358l-.003.923c.16-.134.753-1.133 1.239-1.952.261-.44.492-.83.607-1.002l4.43-7.424c.984-1.722 2.584-.82 2.748.123.082.698.082 6.44.082 7.014 0 .594.025 1.46.053 2.395v.02c.051 1.709.108 3.648.029 4.6-.082.983-1.477 1.599-2.297.491-.303-.403-.247-2.625-.217-3.82.006-.263.012-.476.012-.61 0-.553-.021-1.035-.041-1.517a33.466 33.466 0 0 1-.041-1.518v-3.117a.566.566 0 0 0-.123.164c-.123.164-.041.041-.123.205l-2.872 4.84c-.091.114-.157.242-.226.374-.055.106-.111.215-.184.324l-2.666 4.43c-.615 1.148-1.805 1.148-2.42.532-.512-.482-.471-1.341-.429-2.203.015-.31.03-.62.019-.914l-.025-.239c-.031-.284-.057-.52-.057-.91l-.082-10.417c.123-.903 1.354-1.641 2.256-.534.306.377.274 1.24.238 2.218-.027.725-.056 1.513.049 2.212.066.498.052 3.603.044 5.312zm-21.782 3.63a.868.868 0 0 0-.267.04l-.026.008-.024.007a.81.81 0 0 1-.217.027h-4.881c0-.739-.041-12.551-.246-12.961-.451-.944-1.805-1.067-2.297-.041-.218.466-.129 2.888-.073 4.409v.034l.016.427c.01.271.016.488.016.626 0 1.315.02 2.558.041 3.796v.007c.02 1.23.041 2.457.041 3.744h-5.25c-.295 0-.276-.602-.256-1.22.005-.156.01-.313.01-.462v-3.814c0-.375-.021-.665-.042-.95a11.55 11.55 0 0 1-.04-.896v-.084l.001-.126.008-.534v-.008c.023-1.487.069-4.365-.132-4.867-.451-1.19-2.38-.985-2.38.41 0 .553-.006 1.123-.012 1.7v.006c-.017 1.473-.035 2.992.054 4.405.06.937.051 2.227.041 3.585v.017c-.01 1.373-.021 2.813.04 4.027.042 1.026.698 1.149 1.764 1.149 2.308 0 4.645-.041 6.993-.082 2.37-.041 4.748-.082 7.117-.082.486 0 .796-.03 1.153-.064l.063-.006.138-.012c.533 0 .78-.123.984-.452.275-.447.262-1.355.25-2.144a45.532 45.532 0 0 1-.003-.316v-.124l-.083-6.931c0-.305-.023-.54-.044-.761a5.835 5.835 0 0 1-.038-.593V64.97c0-.615 0-.861-.246-1.23-.574-.821-1.764-.657-2.174.163-.205.41-.123 4.922-.082 5.538 0 .18.02.281.04.386a2.149 2.149 0 0 1 .043.434v6.727z" fill="#D1477B"></path><path fill-rule="evenodd" clip-rule="evenodd" d="M23.349 115.133c-.574 0-.78.041-1.067.287a1.318 1.318 0 0 0-.45.985v3.035c0 1.928 2.83 1.723 2.83.246v-1.969h9.31v1.518c0 2.174 2.912 2.174 2.912 0v-.072l.001-.055v-.068a20.978 20.978 0 0 1 .007-.287l.009-.309v-.019c.048-1.573.1-3.292-1.33-3.292h-.45v-14.028c0-.82-.492-1.435-1.149-1.435h-8.039c-1.4 0-1.355 1.57-1.322 2.732.005.166.01.324.01.467 0 .284 0 .562.002.835l.003.705v.026c.02 3.159.034 5.686-.744 8.975l-.533 1.723zm4.184-8.244v-4.717h4.634v12.961h-5.783l.451-1.846c.37-1.599.698-4.717.698-6.398z" fill="#D1477B"></path><path d="M39.181 116.323v-15.628c0-.533.657-1.19 1.395-1.19 1.446 0 1.44 1.266 1.436 2.095v10.621c.254-.254.823-1.217 1.326-2.068.31-.523.594-1.005.765-1.254.349-.554.677-1.107 1.005-1.66.328-.554.656-1.109 1.005-1.663l2.051-3.363.097-.168.001-.001c.363-.628 1.171-2.028 1.543-2.251 1.107-.738 2.584-.164 2.584 1.682v14.561c0 2.132-2.092 2.091-2.666 1.148-.246-.41-.246-.861-.246-1.518v-10.582c-.197.14-1.41 2.178-2.261 3.611a58.636 58.636 0 0 1-.816 1.352c-.217.314-.406.627-.6.95-.135.225-.273.454-.425.691l-3.035 4.963c-.657 1.271-1.887 1.394-2.667.697-.246-.246-.492-.574-.492-1.025zm58.859-15.382v15.546c0 1.517 2.912 2.092 2.912-.451v-6.317h6.645v6.481c0 2.214 2.912 2.009 2.912.164v-15.382c0-1.804-2.912-2.091-2.912.164v6.03h-6.686v-5.947c0-2.42-2.87-2.092-2.87-.288zm-42.165 15.546v-15.71c0-1.517 2.461-1.804 2.83-.123.068.305.051 4.446.044 6.269v.124l-.001.153-.002.509c.164-.055.292-.146.42-.237.063-.045.127-.091.196-.132.385-.261.712-.472 1.011-.665.783-.506 1.384-.895 2.393-1.755.038-.038.085-.081.134-.126.109-.099.232-.212.317-.325 1.309-1.581 1.367-2.42 1.415-3.117.025-.352.047-.668.226-1.026.164-.369.656-.82 1.107-.82 1.764 0 1.723 1.64 1.477 2.912-.328 1.641-.944 2.789-2.133 3.979a14.256 14.256 0 0 1-1.928 1.599l4.184 6.112.172.26.177.273.174.27.174.263c.033.05.067.097.1.143l.033.045.018.023.006.008c.197.266.376.508.376.93 0 .902-.533 1.517-1.312 1.517-.934 0-1.204-.443-1.614-1.119l-.068-.111c-.645-1.004-1.5-2.245-2.343-3.47a207.87 207.87 0 0 1-1.718-2.519c-.164-.287-.533-.902-.738-1.025-.255.064-.74.391-1.212.709-.44.297-.867.585-1.085.644 0 .147.004.415.01.759v.001c.022 1.587.07 4.798-.133 5.27-.574 1.312-2.707.902-2.707-.492z" fill="#D1477B"></path><path fill-rule="evenodd" clip-rule="evenodd" d="M82.7 117.799c1.201 0 1.525-1.023 1.93-2.299.12-.38.248-.783.408-1.187a2.74 2.74 0 0 1 .033-.095l.043-.11c.053-.135.1-.255.129-.451h6.85c.04.369 1.066 3.281 1.271 3.527 1.108 1.23 2.543.328 2.543-.697 0-.718-.855-3.003-1.444-4.579-.185-.495-.344-.92-.442-1.205l-3.569-10.008c-.37-1.107-1.846-1.722-2.994-.82-.407.305-.702 1.2-.931 1.894-.048.146-.093.282-.136.403l-4.88 13.699c-.41 1.149.41 1.928 1.189 1.928zm5.865-13.822h.164c0 .198.078.415.154.625l.026.073a5.78 5.78 0 0 1 .066.204l.616 1.764c.083.263.274.818.493 1.452.426 1.237.956 2.774.983 3.019h-4.88c0-.289.06-.435.14-.625l.05-.123c.018-.047.037-.098.056-.155l2.132-6.234zm-54.88-28.343c0-.902-.082-1.558-.41-2.297-1.309-2.69-4.164-2.641-6.853-2.596h-.003c-.343.006-.684.012-1.02.012l-.081-4.102c0-.295.658-.275 1.3-.255.159.005.317.01.463.01l4.02-.042c1.518-.328.985-2.255.041-2.255-.506 0-1.003-.002-1.493-.004-1.932-.006-3.771-.013-5.767.085-.615.042-1.025.452-1.066 1.067-.082.943-.041 3.486.04 4.307.086.707.053 1.921.025 2.984-.012.478-.024.925-.024 1.281 0 .765.02 1.466.041 2.163.02.687.04 1.37.04 2.103 0 .121 0 .233-.002.336-.009.667-.013.996.413 1.387.369.338.761.308 1.228.271h.006a12.98 12.98 0 0 1 .333-.022c.051-.002.103-.003.156-.003.484-.017 1-.008 1.528.001 2.066.035 4.335.074 5.773-1.396.82-.82 1.312-1.804 1.312-3.035zm-7.39-2.6c1.494-.036 3.27-.08 4.15.631 1.025.82 1.6 4.143-2.38 4.143h-2.583c0-.846-.02-1.63-.041-2.409-.02-.769-.041-1.534-.041-2.349.278 0 .579-.007.893-.015h.003z" fill="#D1477B"></path><path d="M49.353 80.105c-.779.082-1.394-.37-1.394-1.272 0-.924 1.057-1.048 1.598-1.112l.05-.006.044-.005.032-.004.016-.002a1.55 1.55 0 0 0 .106-.019c.738-.287.738-1.066.738-2.133 0-.513-.02-.964-.041-1.415-.02-.451-.041-.902-.041-1.415V69.81c0-.269-.016-.672-.034-1.142-.06-1.538-.148-3.789.198-4.354.082-.164.246-.287.41-.37.287-.123 1.436-.164 1.805-.164.903-.056 2.524-.035 3.956-.016.649.008 1.259.016 1.745.016.208 0 .417-.015.623-.03.69-.05 1.336-.096 1.715.44.297.462.276 1.294.256 2.071v.006l-.004.139-.002.114-.003.15v.145l.081 8.614c0 .487.02.934.04 1.386.021.46.042.926.042 1.444 0 1.969-2.05 1.805-2.46.78-.152-.333-.125-.866-.1-1.353.009-.174.017-.342.017-.493 0-.175-.018-.286-.038-.402-.021-.129-.044-.264-.044-.5l-.082-10.214H55.67c-.538 0-.993.021-1.444.042-.44.02-.879.04-1.386.04 0 .164.02.236.04.308a.95.95 0 0 1 .042.308v4.509l.001.126a22.533 22.533 0 0 0 .009.447l.026.867c.065 1.996.152 4.699-.323 5.617-.677 1.39-1.732 1.542-2.945 1.715h-.003l-.167.024-.167.025z" fill="#D1477B"></path><path fill-rule="evenodd" clip-rule="evenodd" d="M98.245 69.236c0 .702.021 1.342.042 1.977v.014c.02.621.04 1.238.04 1.905 0 2.297.739 4.266 2.543 5.455 2.297 1.559 5.415 1.19 7.383-.861 1.231-1.272 1.6-3.281 1.518-5.004-.04-.696-.031-1.362-.023-2.008.025-2.02.048-3.838-1.413-5.703-.861-1.108-2.379-1.928-3.937-1.928-2.051 0-3.405.328-4.717 1.846-.82.984-1.436 2.502-1.436 4.307zm5.497-3.897c1.23 0 2.091.205 2.748 1.354.492.82.738 1.886.738 2.912 0 .388.008.789.016 1.193.028 1.43.058 2.906-.262 4.057-.328 1.148-1.272 2.297-2.666 2.297-1.6 0-2.338-.328-3.118-1.928-.43-.897-.421-2.17-.412-3.464l.002-.556c0-.16-.003-.324-.009-.49l-.009-.29c-.035-.998-.074-2.09.346-3.157.452-.944 1.313-1.928 2.626-1.928zm-63-1.572c.065-.002.123-.004.172-.007a.767.767 0 0 0 .154-.02c.246-.042.861-.042 1.477.122 1.271.328 2.46 1.067 3.158 2.133 1.191 1.772 1.177 2.906 1.16 4.284-.006.473-.012.975.03 1.54.246 2.995 0 5.087-1.764 6.85-1.395 1.395-3.446 1.764-5.373 1.354a5.861 5.861 0 0 1-1.272-.492c-.78-.41-1.353-.944-1.846-1.64-1.168-1.621-1.159-3.449-1.15-5.357l.002-.51c.015-.44-.01-.809-.033-1.172-.041-.617-.08-1.22.074-2.15.287-1.845 1.19-3.363 2.748-4.265 1.098-.628 1.98-.655 2.463-.67zm-2.71 6.002v3.814c0 2.051.74 3.692 2.339 4.225 1.6.492 3.281-.328 3.855-2.215.123-.41.329-1.846.288-2.215a3.461 3.461 0 0 0-.038-.215 2.06 2.06 0 0 1-.044-.482c0-.356.008-.704.016-1.045.04-1.657.075-3.131-.878-4.492-.656-.944-1.517-1.108-2.625-1.108-1.805 0-2.912 1.887-2.912 3.733zm36.957 5.701c0-1.682-.082-2.789-1.518-4.06-1.356-1.218-3.714-1.167-5.75-1.123-.366.007-.721.015-1.059.015v-.095l.003-.23.004-.348c.021-1.571.065-4.873-.212-5.357-.082-.163-.246-.328-.41-.45-.943-.616-2.297-.165-1.928 2.378.082.739.041 4.717 0 5.989 0 .369.021.677.041.984.021.308.041.615.041.985l-.001.47-.002.296-.005.57c-.01.93-.019 1.884.008 2.765.042.615.247 1.067.739 1.23.467.193.824.146 1.218.094.194-.025.397-.052.627-.052.549-.008 1.052 0 1.521.007h.002c2.092.032 3.519.053 5.327-1.32.328-.246.698-.78.903-1.148.205-.287.45-1.149.45-1.6zm-5.414 1.846h-2.83v-4.717h3.035c1.394 0 2.666.738 2.666 2.133v.451c.04 1.436-1.354 2.133-2.871 2.133z" fill="#D1477B"></path><path d="M113.873 102.213c-.862 0-1.436-.451-1.436-1.354 0-.574.492-1.23 1.025-1.271h10.747c1.066 0 1.64 1.723.533 2.379-.398.253-.668.251-1.177.247l-.218-.001h-3.117c.165.363.118 4.872.093 7.217v.008c-.006.563-.011 1.002-.011 1.224 0 .186.006.498.013.887v.001c.032 1.677.089 4.781-.177 5.347-.615 1.476-2.707.943-2.707-.492v-14.192h-3.568zm-44.503-1.354c0 .78.615 1.354 1.394 1.354h3.733v14.397c0 .492.574 1.148 1.435 1.148.739 0 1.354-.697 1.354-1.435v-14.11h3.568c2.01 0 1.805-2.584.246-2.584H70.518c-.574 0-1.148.656-1.148 1.23z" fill="#D1477B"></path><path fill-rule="evenodd" clip-rule="evenodd" d="M71.502 86.75v-.451c0-.698 1.067-1.108 1.6-.41.164.204.205.492.205.86 1.764 0 2.953.862 2.953 2.585 0 .11.001.217.003.323l.007.383c.026 1.198.046 2.109-.748 2.903-.656.656-1.272.739-2.215.739 0 .697-.205 1.23-.984 1.23-.825 0-.822-.753-.82-1.177v-.053c-1.805 0-3.036-.82-3.036-2.749 0-.162-.003-.328-.006-.495-.02-1.055-.04-2.166.704-2.909.738-.738 1.353-.78 2.337-.78zm1.846 5.496h.287c.615 0 .903-.738.944-1.395 0-.174.002-.344.005-.508.02-1.258.034-2.158-1.236-2.158v4.06zm-3.16-1.818v.06l.002.158c0 1.395.492 1.6 1.271 1.6v-4.06h-.369c-.934 0-.915 1.429-.904 2.242z" fill="#D1477B"></path><path d="M110.919 86.38v7.712c0 .779 1.395 1.517 2.051-.123.05-.15.115-.283.185-.43.046-.095.095-.195.143-.309.164-.45 1.477-3.527 1.723-3.773v4.717c.041 1.025 1.846 1.025 1.846-.246v-7.383c0-.616-.369-.985-.903-.985-.832 0-1.106.733-1.401 1.523l-.043.115-.032.085-1.313 2.953-.041.114-.021.062c-.083.241-.148.429-.348.562V86.34c-.123-1.148-1.846-.943-1.846.041zm7.219 7.712V86.38c0-.984 1.723-1.189 1.887.041v4.717c.109-.136.328-.656.498-1.06.085-.202.158-.375.199-.457l.985-2.297.099-.258c.314-.823.559-1.465 1.377-1.465.575 0 .903.451.903.985v7.383c0 1.271-1.805 1.271-1.846.246v-4.676c-.287.205-1.887 3.978-2.051 4.43-.615 1.6-2.051.902-2.051.123zm-40.77-7.793v7.834c0 .656 1.271 1.435 2.05-.164l2.01-4.471v4.717c.206.984 1.805.861 1.805-.041v-8.04c0-.41-1.353-1.353-2.05.41l-1.313 2.954c-.019.042-.042.1-.07.167l-.003.008c-.16.386-.451 1.087-.624 1.26v-4.635c-.124-1.148-1.805-.902-1.805 0z" fill="#D1477B"></path><path fill-rule="evenodd" clip-rule="evenodd" d="M42.996 92.164v-3.815c0-1.681 1.066-2.87 2.748-2.87 2.174 0 3.2.942 3.2 3.198a23.817 23.817 0 0 0 .004.523l.007.373.006.236c.062 2.666.12 5.185-2.97 5.185-1.847 0-2.995-1.025-2.995-2.83zm1.799-1.47v.01c.003.186.006.348.006.476 0 .984.04 2.378.984 2.337.82 0 1.23-.328 1.23-1.517v-3.57c0-1.968-1.517-1.681-1.886-1.19-.383.558-.352 2.387-.334 3.454z" fill="#D1477B"></path><path d="M36.228 86.299v7.834c0 .861 1.436.984 1.764.328.099-.231.092-.621.085-.979v-.006a14.136 14.136 0 0 1-.003-.246v-1.312c0-.119-.003-.226-.007-.322l-.008-.19c-.014-.278-.022-.439.053-.53.104-.127.367-.123.993-.114.203.004.445.007.733.007.302 0 .274.494.254.854-.004.08-.008.153-.008.213v1.312c0 .062-.005.14-.01.228-.033.557-.09 1.536.83 1.536.533 0 .984-.41.984-.697v-7.916c0-.78-1.312-1.108-1.763-.288-.147.239-.122.943-.096 1.65.031.875.063 1.755-.233 1.755-.308 0-.563.004-.774.008-.59.01-.84.015-.94-.104-.072-.087-.067-.24-.057-.503.003-.109.008-.236.008-.386v-1.23c0-.084.004-.176.01-.272.03-.613.069-1.41-.995-1.41-.41.041-.82.37-.82.78zm67.965 7.834v-7.834c0-.862 1.394-1.026 1.681-.288.136.271.104 2.191.088 3.107-.003.193-.006.342-.006.42.103-.081.174-.132.246-.183l.108-.078.049-.037.03-.024.03-.023.03-.023a1.61 1.61 0 0 1 .225-.185 1.558 1.558 0 0 0 .226-.185c.699-.76.722-1.587.738-2.132.005-.19.009-.345.041-.452.246-.902 1.641-.86 1.846.041.164.78-.246 2.79-1.272 3.487.092.385.471 1.181.862 2.002h.001c.482 1.014.983 2.065.983 2.428 0 .738-1.394 1.19-1.846.082l-1.435-3.323c-.143.102-.276.204-.408.306l-.003.002c-.133.103-.266.205-.41.308 0 .096.004.244.009.425.023.82.063 2.307-.173 2.61-.492.574-1.64.328-1.64-.451zM24.087 88.8c.863 0 .95-.46 1.04-.931.094-.493.19-.996 1.175-.996.995 0 .943 1.384.912 2.235l-.005.128-.001.041a5.973 5.973 0 0 0-.003.18c-.088 0-.18-.003-.276-.005-.672-.019-1.488-.041-1.488.784 0 .246.082.37.205.451.317.254.658.238 1.1.218.13-.006.268-.013.418-.013v.13c0 .047 0 .093.002.138 0 .072.002.143.003.213.02 1.203.035 2.103-1.236 2.103-.616 0-.732-.443-.85-.9-.126-.486-.256-.986-.996-.986-1.804 0-.943 3.363 1.846 3.363 1.067 0 1.846-.205 2.461-.902.772-.873.72-2.76.676-4.384-.01-.361-.02-.71-.02-1.03 0-4.266-4.553-3.528-5.496-2.051-.41.82-.656 2.215.533 2.215z" fill="#D1477B"></path><path fill-rule="evenodd" clip-rule="evenodd" d="M63.586 92.984c-.082.656-.287 1.928-1.148 1.928-.492 0-.944-.287-.944-.738-.038-.229.736-2.926.979-3.775l.002-.006v-.001l.045-.156 1.107-4.02c.123-.369.533-.656 1.026-.656 1.025 0 1.207.81 1.423 1.776l.053.234c.05.19.184.666.357 1.28.533 1.897 1.438 5.117 1.407 5.365-.041.41-.451.697-.943.697-.903 0-1.149-1.395-1.149-1.928h-2.215zm1.805-1.394l-.738-2.749-.698 2.749h1.436z" fill="#D1477B"></path><path d="M97.26 88.226v4.06c0 3.118 3.651 3.241 5.046 2.093.164-.123.451-.534.533-.739 1.067-2.214-1.394-2.502-1.599-1.066-.165 1.067-.534 1.067-1.231 1.067-.78 0-.902-1.067-.902-1.887v-2.83c0-1.641.328-1.928 1.312-1.928.575 0 .678.442.782.889.066.286.133.575.326.751.615.575 2.173.37 1.394-1.558-.943-2.338-5.66-2.297-5.66 1.148z" fill="#D1477B"></path><path fill-rule="evenodd" clip-rule="evenodd" d="M56.08 94.174V86.38c0-.864 1.253-.825 2.334-.791.202.006.398.012.578.012 2.584 0 3.487 3.364 1.928 5.045-.745.824-1.829.822-2.855.82h-.139v2.708c0 .984-1.846.984-1.846 0zm1.846-4.143h.451c.82 0 1.395-.41 1.395-1.19 0-1.558-.37-1.763-1.846-1.763v2.953z" fill="#D1477B"></path><path d="M84.382 86.38v3.036c0 2.01 1.517 2.584 3.076 2.174.125-.032.209-.063.28-.09.115-.043.199-.075.376-.075 0 .042 0 .096-.002.16l-.008.284c-.023.843-.067 2.415.133 2.715.451.615 1.682.41 1.682-.41v-7.835c0-.902-1.477-1.025-1.764-.246-.099.263-.065 2.344-.048 3.413v.001c.004.265.007.467.007.565a.768.768 0 0 0-.07.024l-.048.018c-.347.132-1.25.477-1.605-.124-.123-.205-.123-.328-.123-.656v-3.035c-.246-1.108-1.886-.903-1.886.081zm6.932 7.712V86.38c0-.41.45-.779.82-.697h3.486c1.026 0 .985 1.436-.082 1.436h-2.42v2.133c0 .291.494.26 1.07.224.801-.05 1.76-.11 1.76.678 0 .799-.971.76-2.061.718l-.364-.014c-.135-.004-.27-.007-.405-.007v2.584h2.42c1.067 0 1.108 1.436.082 1.436h-3.486c-.37 0-.82-.37-.82-.78zm-60.746-7.014h1.066v7.096c0 .984 1.846.984 1.846 0v-7.096c.07 0 .155.002.248.005.667.02 1.803.053 1.803-.703 0-.369-.37-.779-.78-.779h-4.43c-.86 0-1.148 1.477.247 1.477zm19.524 7.096V86.38c0-.41.41-.779.861-.738h3.815c.656 0 .984.903.369 1.272-.391.228-1.664.197-2.581.175-.237-.006-.45-.011-.618-.011v7.096c0 .984-1.846.984-1.846 0z" fill="#D1477B"></path><path fill-rule="evenodd" clip-rule="evenodd" d="M119.287 83.263c0 2.256 3.65 1.969 3.65.164 0-.533-.328-.533-.697-.533-.902 0-.123.902-1.313.902-.615 0-.164-.902-1.148-.902-.205 0-.492.123-.492.37zm-1.231-21.493c.328 0 .903-.082 1.19-.164 2.051-.615 2.994-3.24 1.025-3.24-.738 0-.697.861-1.312 1.272-.452.328-1.682.492-2.215-.533-.698-1.313-1.846-.698-1.928.164-.082.779.902 1.763 1.641 2.132.369.164 1.107.37 1.599.37z" fill="#D1477B"></path>
		</symbol>
	
</svg>
