<svg width="77" height="90" viewBox="0 0 77 90" xmlns="http://www.w3.org/2000/svg">
<path d="M38 80C53.464 80 66 67.464 66 52C66 36.536 53.464 24 38 24C22.536 24 10 36.536 10 52C10 67.464 22.536 80 38 80Z" fill="#E5E5E5"/>
<path d="M68.3611 28.1032C69.2677 28.7013 70.3443 29.0323 71.4369 29.0323C74.5054 29.0323 77 26.5384 77 23.474C77 22.0108 76.4058 20.5795 75.3699 19.5445L67.6071 11.7885C66.5566 10.739 65.1604 10.1613 63.6741 10.1613C60.6071 10.1613 58.1125 12.6537 58.1125 15.7181C58.1125 16.8285 58.4365 17.8897 59.0394 18.794L57.6519 20.1803C53.7465 17.7547 49.5128 16.0897 45.0365 15.2187V13.0645H45.4752C49.1162 13.0645 52.1106 10.3485 52.2922 6.88065C52.3881 5.06758 51.7532 3.34742 50.5066 2.03516C49.2774 0.741774 47.55 0 45.7644 0H30.0703C26.4308 0 23.4364 2.71597 23.2548 6.18242C23.1603 7.99403 23.7938 9.71565 25.0404 11.0279C26.2695 12.3227 27.9985 13.0645 29.7841 13.0645H30.5105V15.2202C11.9295 18.8202 -1.08254 35.5311 0.0710493 54.601C1.25225 74.1106 17.5217 89.6574 37.111 89.9942C37.3347 89.9986 37.5585 90 37.7822 90C47.7519 90 57.1303 86.1706 64.2509 79.1753C71.5357 72.0203 75.5471 62.4615 75.5471 52.2566C75.5471 43.8271 72.6922 35.6139 67.4807 28.9829L68.3611 28.1032ZM72.6442 52.2581C72.6442 61.6776 68.9408 70.5019 62.2169 77.1053C55.4944 83.7073 46.6041 87.2637 37.1604 87.091C19.0792 86.7818 4.06068 72.4326 2.97101 54.4253C1.8828 36.4369 14.4459 20.7218 32.1944 17.8679L33.4163 17.6719V13.0645H39.2278V10.1613H29.7841C28.7772 10.1613 27.8415 9.75919 27.1485 9.02903C26.4555 8.30032 26.1024 7.34371 26.1562 6.33484C26.255 4.44339 28.0115 2.90323 30.0703 2.90323V2.90468H45.7673C46.7727 2.90468 47.7083 3.30677 48.4014 4.03548C49.0944 4.76419 49.446 5.72081 49.3937 6.72968C49.2934 8.62113 47.5369 10.1613 45.4781 10.1613H42.1336V17.6734L43.3555 17.8694C48.2604 18.6576 52.8675 20.4648 57.0489 23.2432L58.0398 23.9023L61.0211 20.925L62.8983 22.8005L64.9527 20.7479L61.7984 17.5965C61.2972 17.0956 61.0211 16.4294 61.0211 15.7195C61.0211 14.2563 62.2125 13.066 63.677 13.066C64.3875 13.066 65.0544 13.3418 65.5556 13.8426L73.3184 21.5985C73.8138 22.0921 74.0971 22.7773 74.0971 23.4755C74.0971 24.9402 72.9043 26.1305 71.4398 26.1305C70.741 26.1305 70.0552 25.846 69.5612 25.3524L68.2856 24.0779L63.5564 28.8015L64.418 29.8205C69.7225 36.0987 72.6442 44.0666 72.6442 52.2581Z" fill="#E5E5E5"/>
</svg>
