<svg width="32" height="32" viewBox="0 0 32 32" fill="none" xmlns="http://www.w3.org/2000/svg">
<path d="M31.0625 0C30.5449 0 30.125 0.419678 30.125 0.9375V2.51025H1.875V0.9375C1.875 0.419678 1.45532 0 0.9375 0C0.419678 0 0 0.419678 0 0.9375V31.0625C0 31.5803 0.419678 32 0.9375 32C1.45532 32 1.875 31.5803 1.875 31.0625V19.4478H30.125V31.0625C30.125 31.5803 30.5449 32 31.0625 32C31.5803 32 32 31.5803 32 31.0625V0.9375C32 0.419678 31.5803 0 31.0625 0ZM30.125 10.0415H24.4688V4.38525H30.125V10.0415ZM15.0625 10.0415H9.40625V4.38525H15.0625V10.0415ZM1.875 11.9165H7.53125V17.5728H1.875V11.9165ZM16.9375 11.9165H22.5938V17.5728H16.9375V11.9165Z" fill="#03918C"/>
</svg>
