<svg width="148" height="144" viewBox="0 0 148 144" fill="none" xmlns="http://www.w3.org/2000/svg">
<path fill-rule="evenodd" clip-rule="evenodd" d="M34.0133 20.7538C34.9977 20.9999 36.6793 20.9589 37.7048 20.8359L39.9196 20.7538C42.0935 20.6308 45.2928 20.2206 47.4667 19.8925L54.0294 18.8261C56.7365 18.3749 60.1408 17.1854 62.3557 19.6874C63.5452 21.041 63.7093 23.2969 63.5042 25.0606C63.4632 25.5528 63.6683 28.547 63.7503 28.9162C64.1194 31.6643 65.1038 34.6585 67.4008 36.3812C68.9594 37.5707 70.313 37.8168 72.5278 37.8168C73.7994 37.8168 74.7427 37.4476 75.6861 36.8734C79.0495 34.6585 80.403 29.3673 81.1003 25.5118C81.1413 25.1836 81.2644 24.6504 81.3054 24.2813C81.5515 24.4453 81.8386 24.6094 82.0847 24.7735C82.2488 24.8965 82.3718 24.8965 82.5359 25.0196C86.4325 27.1935 91.6006 27.0704 95.8253 25.8399C96.1124 25.7579 96.3175 25.6758 96.6046 25.6348C96.6046 26.5782 96.9738 27.6446 97.0558 28.547C97.466 32.5256 97.0968 36.5042 95.9483 40.1547C95.2511 42.4516 94.0206 44.5845 92.585 46.4713C91.2314 48.276 89.4677 49.8756 87.5809 51.1472C85.243 52.7058 82.659 54.0183 79.9108 54.7566C79.4597 54.8797 79.0905 55.0027 78.6393 55.0847C73.4712 56.3152 68.2211 56.5613 62.93 55.659C58.3361 54.8797 53.9063 52.8699 50.0508 50.3268C47.5898 48.6862 46.6054 47.7018 44.6776 45.856C44.5135 45.6919 44.3084 45.6099 44.5135 45.4869C44.5135 45.4869 45.785 45.3638 45.9081 45.3638C47.7538 45.1587 51.4043 44.4204 53.2911 43.6001C54.1524 43.2309 54.4805 42.9028 55.1778 42.4106L56.6134 43.5591C58.7053 45.0357 60.9612 46.2662 63.3811 47.1685L65.391 47.7428C70.8872 48.9323 75.6041 48.399 80.6081 45.897C81.1824 45.6099 81.6335 45.3638 82.2078 45.0357C82.741 44.7075 83.3152 44.5435 83.4383 43.8052C83.5613 43.1489 82.9051 42.5337 82.3308 42.5337C81.7976 42.5337 80.362 43.477 79.7468 43.7642C78.4753 44.4204 77.0807 44.9947 75.6451 45.3638C73.9224 45.774 72.4048 45.9791 70.5591 46.1021L68.7953 46.0201C68.1801 45.938 67.7289 45.897 67.1137 45.774C65.9652 45.5689 65.1038 45.2818 64.1194 44.9536C61.1663 43.9692 58.6232 42.2876 56.3263 40.3188C55.7931 39.8676 55.3829 39.3344 54.7266 39.0062C53.6192 38.432 52.1836 38.1859 50.8301 38.1859C50.4199 38.1859 50.3379 38.1039 49.9277 38.1039C46.3182 38.0629 41.5603 36.5042 38.6481 34.0432C38.32 33.7561 37.8688 33.469 37.6227 33.0588C38.279 33.0588 39.3454 33.3049 40.2888 33.3049C42.2576 33.3049 44.5955 32.9358 46.1132 32.4846C51.1582 30.926 50.9941 27.6446 46.1132 27.0294C44.1854 26.7833 42.7088 26.4962 41.0681 25.963C39.5915 25.4708 38.1559 24.7325 37.0075 23.9121C36.1051 23.2559 35.736 22.7637 35.0387 22.0664L34.0133 20.7538ZM95.4971 14.2732C95.4971 15.3397 95.5792 18.0057 95.7022 18.8671L96.1124 23.3379C95.8663 23.3789 95.7432 23.4609 95.4561 23.543C92.0517 24.5274 88.0321 24.8965 84.6688 23.584C82.4949 22.7226 82.2078 22.0664 81.4695 21.6562C81.6335 21.2871 81.7156 18.9081 81.7976 18.2518C81.9617 16.242 81.8796 15.0525 82.1257 12.9197C82.5359 9.18716 84.2176 5.20855 87.745 3.44484C91.0674 1.80418 94.9639 2.21434 98.4503 2.99366C98.3273 3.15772 98.2042 3.28077 98.0812 3.44484C97.9582 3.60891 97.8351 3.81399 97.712 3.97806C95.8663 6.68515 95.4971 11.0739 95.4971 14.2732ZM72.7329 35.5198C70.8872 35.5198 70.0258 35.6019 68.5082 34.4124C67.893 33.9612 67.1957 32.8948 66.8676 32.1565C66.4574 31.2131 66.2113 30.2287 66.0062 29.2033C65.432 26.2911 65.9652 23.9942 65.6371 22.0254C65.596 21.6562 65.555 21.4921 65.432 21.164C63.9964 16.283 60.0588 15.2576 55.547 16.201C55.1368 16.283 54.7266 16.4061 54.3165 16.4881C53.8653 16.5702 53.4141 16.6522 53.0039 16.7342C48.164 17.6776 38.402 19.1542 33.8902 18.5389C32.7828 18.3749 31.8394 17.8827 31.2651 18.5389C31.1421 18.703 30.937 19.0311 30.937 19.2772C30.937 20.3847 32.3726 22.6406 33.1929 23.584C34.0953 24.6094 35.1207 25.5528 36.2692 26.2911C36.4743 26.4141 36.5973 26.4962 36.8024 26.6192C37.0075 26.7423 37.0895 26.7833 37.2946 26.9063C37.8688 27.1935 38.402 27.5216 38.9763 27.7267C41.1091 28.506 43.365 29.1623 45.662 29.3263C46.0311 29.3673 46.7694 29.4904 46.9745 29.6955C46.4823 29.8185 45.8671 30.3107 44.1444 30.6799C41.9705 31.1311 38.9352 31.3361 36.7614 30.5978C36.0231 30.3107 34.4644 29.5314 34.2183 29.5314C33.6441 29.5314 33.0699 30.1056 33.0699 30.6799C33.0699 31.2541 34.0953 32.6487 34.4234 33.0588C34.5875 33.2639 34.6695 33.387 34.8336 33.592C34.9977 33.7971 35.1207 33.9202 35.2848 34.1253C36.0231 35.0686 37.3766 36.1351 38.361 36.7913C39.5095 37.5707 40.781 38.309 42.0935 38.7601L44.9647 39.7035C45.4979 39.8266 45.9491 39.9496 46.5233 40.0727C47.5898 40.2778 48.8203 40.4828 49.9277 40.4828C52.2656 40.4828 52.3477 40.852 53.2911 40.934C52.5938 41.8774 47.8359 42.8208 46.6874 43.0259C45.4569 43.2309 44.1033 43.313 42.7908 43.313C42.1345 43.313 40.4939 42.6567 40.4939 44.3794C40.4939 45.2408 44.0213 48.6451 44.8416 49.2604C45.1288 49.4655 45.3338 49.6706 45.5799 49.8756C46.6464 50.778 47.7538 51.6394 48.9843 52.4187C50.2148 53.239 51.4863 53.9363 52.7989 54.6336C53.0039 54.7156 53.086 54.7976 53.25 54.8797C54.0294 55.2488 54.7677 55.618 55.547 55.9051C58.7052 57.0125 60.3459 57.6688 63.9554 58.161C67.6469 58.6942 72.0767 58.6122 75.6861 57.9969C78.5573 57.5047 81.2234 56.8485 83.8074 55.741C85.4071 55.0437 86.8837 54.2644 88.3192 53.321C92.3389 50.6139 95.4971 46.9635 97.3839 42.4926C97.507 42.2465 97.548 42.0825 97.63 41.8364C99.1476 37.2425 99.3117 35.6429 99.3117 30.6388C99.3117 29.2443 99.1066 27.9728 98.9015 26.7423C98.5734 24.8555 98.2863 23.0098 98.1632 21.082C98.1632 20.8359 98.1222 20.4257 98.0812 20.0976C98.0402 19.8515 98.0402 19.4413 97.9992 19.1132L97.7941 16.119C97.7531 13.1658 97.8351 9.39225 98.7375 6.89023C98.8605 6.52108 99.1066 5.90584 99.3117 5.5777C99.4347 5.41364 99.5988 5.12652 99.6808 4.96245C100.132 4.34721 100.706 4.06009 101.445 3.81399C101.937 3.69094 102.347 3.32179 102.347 2.74756C102.347 1.80418 101.568 1.59909 100.911 1.39401C95.5382 -0.410721 89.5497 -0.90292 84.7918 2.62451C83.6844 3.44484 82.741 4.67534 82.0437 5.86482C81.5105 6.8082 81.0183 7.83362 80.6902 8.85903C80.1569 10.7868 79.7878 12.7146 79.6647 14.7654C79.6237 15.9139 79.6647 16.9803 79.5827 18.1288C79.3366 21.164 78.9675 24.3633 78.3112 27.2345C77.778 29.5314 76.0143 35.5198 72.7329 35.5198Z" fill="#13908B"/>
<path fill-rule="evenodd" clip-rule="evenodd" d="M62.8889 133.344C63.3811 133.221 64.8988 132.36 65.391 132.114C66.2113 131.663 67.1137 131.335 67.852 130.842L72.856 128.299C72.979 128.299 74.9478 129.407 75.2349 129.571L76.4244 130.227C77.1627 130.678 82.0437 133.385 82.3718 133.426V133.591C81.9617 133.673 81.5105 134.001 81.1413 134.206L73.3482 138.307C73.0201 138.472 73.0201 138.554 72.7329 138.43C72.2407 138.184 63.2581 133.632 62.8479 133.508V133.344H62.8889ZM50.9941 137.528C50.9941 136.093 51.0762 134.944 51.0762 133.55C51.0762 132.196 51.0762 130.842 51.0762 129.489C51.4043 129.53 52.7578 130.227 53.127 130.432L57.1056 132.401C57.4748 132.565 57.7209 132.729 58.049 132.893C58.3771 133.057 58.8283 133.221 59.0334 133.467L55.0548 135.518C54.3575 135.846 51.4043 137.446 50.9941 137.528ZM94.8819 138.348L87.745 134.452C87.4989 134.329 87.4579 134.288 87.2118 134.165L86.0223 133.591C86.2274 133.303 86.7606 133.139 87.0887 132.975L95.0049 128.792C95.046 131.786 94.8819 135.313 94.8819 138.348ZM60.9201 132.401C60.7561 132.401 59.8127 131.868 59.6076 131.786L58.6642 131.294C58.5002 131.212 58.4592 131.212 58.2951 131.13C58.008 131.007 57.9669 130.924 57.6388 130.801C57.3517 130.678 57.2697 130.596 56.9826 130.432C56.7365 130.309 56.5314 130.268 56.2853 130.104L51.6504 127.807C51.2402 127.643 50.707 127.192 50.1738 127.192C49.0663 127.192 49.3535 128.833 49.3535 129.94C49.3535 130.514 49.3535 131.089 49.3535 131.704C49.3535 132.401 49.2714 132.77 49.2714 133.467C49.2714 134.657 49.2714 135.846 49.2714 137.036C49.2714 138.225 48.7382 139.784 50.1738 139.784C50.5019 139.784 51.2812 139.251 51.6504 139.128C51.9375 139.005 52.0606 138.882 52.3477 138.759C52.6348 138.636 52.7989 138.554 53.045 138.389C53.2911 138.266 53.5372 138.143 53.7422 138.02L57.3107 136.175C57.8029 135.928 58.2131 135.723 58.7463 135.477C61.0022 134.37 60.51 134.165 61.6584 134.739C63.5862 135.723 65.473 136.626 67.4008 137.61C68.3852 138.102 69.2875 138.554 70.2309 139.046C70.7231 139.292 71.1333 139.497 71.6665 139.743C73.5122 140.686 72.979 140.317 75.317 139.169L83.7254 134.698C84.0945 134.493 84.1355 134.411 84.5047 134.616L92.1338 138.8C92.749 139.128 95.4151 140.645 95.7022 140.645C96.8097 140.645 96.6046 139.169 96.6046 138.061C96.6046 136.913 96.6046 135.723 96.6046 134.534C96.6046 133.878 96.6866 133.508 96.6866 132.852V127.151C96.6866 126.495 95.9483 126.208 95.0049 126.782C94.7588 126.905 94.5538 127.028 94.3077 127.151L85.6532 131.745C83.6433 132.729 84.7098 132.688 82.782 131.745C82.4949 131.581 82.3718 131.499 82.0847 131.376C81.7976 131.212 81.6745 131.171 81.3874 131.006L75.0709 127.561C74.3736 127.192 73.4302 126.454 72.6509 126.454C72.4048 126.454 70.8051 127.356 70.436 127.52L67.1547 129.202C66.4574 129.612 61.0842 132.401 60.9201 132.401Z" fill="#13908B"/>
<path fill-rule="evenodd" clip-rule="evenodd" d="M137.047 95.158C137.047 94.0916 137.621 92.82 138.277 92.3278C138.401 92.4919 138.524 92.656 138.647 92.861C139.467 94.0915 139.713 95.6502 139.016 96.9627C138.893 97.2088 138.852 97.3319 138.688 97.5369C138.565 97.742 138.401 97.9061 138.318 98.1112C137.949 97.8651 137.662 97.2908 137.457 96.8397C137.252 96.3885 137.047 95.8142 137.047 95.158ZM139.795 90.4821L140.985 89.7848C142.092 89.2516 143.405 89.1696 144.512 89.7438C144.84 89.9079 145.414 90.318 145.619 90.5641C144.061 91.5895 142.789 92.1228 140.985 91.3024C140.574 91.1794 139.959 90.7692 139.795 90.4821ZM130.936 90.4821C131.592 90.318 131.961 89.3336 134.217 89.3336C135.283 89.3336 136.063 90.0309 136.719 90.4821C136.35 90.9743 134.832 91.7126 133.889 91.7126C132.904 91.7126 131.469 91.3024 130.936 90.4821ZM137.047 86.2984C137.047 85.273 137.621 83.9604 138.277 83.4682C139.139 84.7808 139.426 84.9859 139.426 86.7496C139.426 87.3648 139.016 88.2672 138.729 88.7184C138.606 88.9235 138.442 89.0465 138.359 89.2926C137.99 89.0465 137.703 88.4723 137.498 88.0211C137.252 87.5289 137.047 86.9547 137.047 86.2984ZM135.365 85.8472C135.365 87.0777 135.529 87.4469 135.529 87.816C135.16 87.775 134.709 87.5699 134.012 87.5699C131.756 87.5699 128.844 89.5797 128.844 90.5641C128.844 90.6872 128.926 90.8923 129.008 91.0153L130.73 92.4919C131.018 92.656 131.264 92.82 131.592 92.9431C133.52 93.7224 134.258 93.4353 135.816 93.0661C135.242 94.1326 135.324 95.9373 135.775 97.0858C136.022 97.742 136.35 98.3573 136.76 98.8905C138.072 100.654 138.729 100.818 140.287 98.2752C141.19 96.8397 141.436 95.24 140.903 93.5993C140.821 93.3532 140.779 93.3122 140.738 93.1071C141.231 93.2302 142.051 93.5583 142.871 93.4763C143.733 93.3532 144.184 93.3122 144.881 92.9841C145.701 92.615 147.67 91.5075 147.67 90.5231C147.67 89.9079 146.358 88.9235 145.825 88.5953C143.364 86.9547 141.641 87.9391 140.985 87.9391C141.641 86.5855 140.862 84.0835 139.959 82.853C139.836 82.6889 139.672 82.4838 139.508 82.3198C138.934 81.7045 138.442 81.0483 137.662 81.7456C136.514 82.6479 135.365 84.2886 135.365 85.8472Z" fill="#13908B"/>
<path fill-rule="evenodd" clip-rule="evenodd" d="M8.17276 95.4451C8.17276 94.5427 8.5009 93.8455 8.91106 93.2302C9.07513 93.0251 9.23919 92.8611 9.32123 92.656C9.60834 92.738 9.52631 92.779 9.81343 93.1892C9.97749 93.4353 10.0595 93.5583 10.1826 93.8865C10.7568 95.281 10.7568 96.5526 9.93648 97.7831C9.81343 97.9471 9.60834 98.1932 9.56733 98.3983H9.32123C9.23919 98.1522 8.17276 96.8397 8.17276 95.4451ZM16.7042 90.8923C15.5147 91.5075 14.3663 92.656 12.1104 91.6716C11.6592 91.4665 11.29 91.1794 10.8799 90.8923C11.249 90.359 12.7666 89.7028 13.792 89.6207C14.3663 89.5797 15.0225 89.7848 15.4327 89.9489C15.8429 90.154 16.4991 90.5641 16.7042 90.8923ZM4.97347 91.9997C3.98907 91.9997 2.55349 91.4255 2.14332 90.8512C2.67654 90.0309 4.89143 89.1285 6.65515 89.9489C7.0243 90.1129 7.63955 90.5231 7.88565 90.8512C7.18836 91.2204 6.36803 91.9997 4.97347 91.9997ZM8.17276 86.6265C8.17276 85.7242 8.5009 85.0269 8.91106 84.4116C9.07513 84.2066 9.23919 84.0425 9.32123 83.8374H9.44428C9.48529 84.0425 9.69038 84.2476 9.81343 84.4527C10.7568 85.8472 10.8388 87.5699 9.89546 88.9645C9.77241 89.1285 9.56733 89.3746 9.52631 89.5797H9.28021C9.19818 89.3336 8.74699 88.8414 8.54191 88.3492C8.41886 87.857 8.17276 87.1187 8.17276 86.6265ZM6.49108 86.2164C6.49108 87.3238 6.45006 87.0367 6.69616 88.1031C6.20396 88.0621 6.0399 87.857 5.09652 87.857C3.86602 87.857 2.79959 88.2672 2.02027 88.7594C1.52807 89.0465 1.32299 89.2516 0.871805 89.5797C-0.727843 90.8102 0.0514731 91.5485 1.77417 92.697C3.00467 93.5173 3.86602 93.6404 5.26058 93.6404C5.83481 93.6404 6.36803 93.4353 6.86023 93.3533C6.08091 94.9529 6.5321 97.0447 7.43446 98.5213C7.72158 99.0135 8.70598 100.449 9.32123 100.449C9.93648 100.449 10.1416 100.244 10.5927 99.6698C11.7002 98.2753 12.3154 97.4549 12.3154 95.3631C12.3154 94.6248 12.1104 93.8455 11.8643 93.3943C13.2998 93.7224 12.6436 93.6814 14.1612 93.6814C16.089 93.6814 18.7961 91.7126 18.7961 90.9333V90.6462C18.7961 90.154 16.4991 87.898 13.9971 87.898C13.1768 87.898 12.8076 88.0621 12.1514 88.1852C12.1514 87.775 12.3154 87.5699 12.3154 86.5035C12.3154 85.396 11.8643 84.3706 11.4131 83.6323C11.126 83.1401 10.9209 82.935 10.6338 82.5249C9.56733 81.1303 9.07513 81.6635 8.29581 82.4839C7.39345 83.3862 6.49108 84.8218 6.49108 86.2164Z" fill="#13908B"/>
<path fill-rule="evenodd" clip-rule="evenodd" d="M49.8457 23.7071C49.8457 24.1992 50.3379 24.7735 50.8301 24.7735C53.2501 24.7735 54.7267 24.1993 56.1623 24.0762C56.1623 24.6094 56.0802 24.8145 56.0802 25.3887C56.0802 25.8809 56.1623 26.127 56.1623 26.7013C56.1623 28.588 56.7775 31.9514 57.5568 33.7971C58.09 35.1097 58.7463 36.3402 59.6077 37.4066C60.1409 38.0629 61.8636 39.9086 62.7659 39.9086C63.3402 39.9086 63.9144 39.3344 63.9144 38.7601C63.9144 37.5296 61.5354 37.4476 59.8948 33.428C59.6487 32.8538 59.4846 32.3205 59.2795 31.7463C58.5002 29.3263 58.2541 25.5938 58.5822 22.8867C58.6643 22.2305 58.1311 21.6152 57.5158 21.6152L53.3321 22.3125C52.6758 22.3945 51.8555 22.5176 51.1582 22.5996C50.7071 22.6406 50.502 22.6406 50.2559 22.8867C50.0508 23.0098 49.8457 23.461 49.8457 23.7071Z" fill="#13908B"/>
<path fill-rule="evenodd" clip-rule="evenodd" d="M72.7329 143.927C73.2662 143.927 78.7214 141.015 79.9109 140.399C80.4851 140.112 81.0183 139.825 81.6335 139.538L85.161 137.733C85.4481 137.569 85.7352 137.446 86.0223 137.282C87.1298 136.708 86.5145 135.6 85.7762 135.6C85.4891 135.6 84.4637 136.175 84.1356 136.339L72.815 142.04C72.6099 142.04 71.5024 141.425 71.2153 141.302L64.7347 138.02C64.4886 137.897 64.2015 137.774 63.9144 137.61C63.6273 137.446 63.3812 137.364 63.094 137.2C62.8069 137.036 59.9768 135.6 59.8127 135.6C58.8693 135.6 58.5412 136.626 59.1975 137.159L70.7231 143.024C71.0513 143.188 72.4048 143.927 72.7329 143.927Z" fill="#13908B"/>
<path fill-rule="evenodd" clip-rule="evenodd" d="M60.3869 130.514C61.1662 130.514 61.3713 130.268 62.1916 129.817L71.5844 125.059C71.7485 124.977 71.8305 124.977 71.9946 124.895C72.979 124.444 72.2407 124.28 74.2505 125.264C74.7837 125.551 75.2349 125.756 75.7681 126.043L84.0125 130.227C84.2996 130.35 85.0789 130.924 85.6121 130.268C85.8582 129.94 85.8582 129.612 85.6531 129.243C85.448 128.874 83.0691 127.807 82.823 127.684L76.1373 124.321C75.563 124.034 75.0298 123.747 74.4556 123.5C74.1685 123.377 73.9224 123.254 73.6353 123.09C72.3227 122.393 72.4458 122.803 70.8051 123.582L61.0432 128.504C60.3459 128.833 59.6076 129.161 59.7306 129.858C59.7717 130.227 60.1818 130.514 60.3869 130.514Z" fill="#13908B"/>
<path fill-rule="evenodd" clip-rule="evenodd" d="M72.856 134.534L70.8872 133.673C70.6001 133.55 70.518 133.467 70.1899 133.385V133.221C70.7231 133.098 72.6099 131.991 72.7329 131.95C73.1021 131.868 74.7837 133.016 75.358 133.139V133.303C74.8658 133.467 73.0611 134.534 72.856 134.534ZM67.3187 133.344C67.3187 134.042 67.893 134.206 68.3852 134.411C69.1645 134.78 72.5688 136.38 72.979 136.38C73.3071 136.38 75.1939 135.313 75.7681 135.026C76.0142 134.903 76.2193 134.821 76.4244 134.698C77.1627 134.329 78.1881 133.919 78.1881 133.344C78.1881 132.729 78.0651 132.606 77.0807 132.155C76.3834 131.827 73.3892 130.145 72.938 130.145C72.5688 130.145 68.3031 132.36 67.8109 132.647C67.5648 132.77 67.3187 133.016 67.3187 133.344Z" fill="#13908B"/>
<path fill-rule="evenodd" clip-rule="evenodd" d="M53.373 47.8248C53.373 48.5221 53.8652 48.7272 54.1113 48.9733C54.2754 49.1373 54.2754 49.1373 54.4805 49.3014C55.5879 50.1217 57.3517 51.1472 58.6642 51.5983C59.0333 51.7214 59.2794 51.8444 59.6076 51.9265C60.8791 52.2956 62.3557 52.6648 63.8733 52.8288C64.3245 52.8699 64.6116 52.9109 65.1038 52.9109C65.9241 52.9109 66.6624 53.198 67.3597 52.7058C67.9339 52.2956 67.9339 51.3112 67.3597 50.9011C67.0726 50.696 66.7855 50.696 66.2933 50.696C58.8283 50.737 55.5469 46.9635 54.8086 46.7174C54.0703 46.5123 53.373 47.1275 53.373 47.8248Z" fill="#13908B"/>
<path fill-rule="evenodd" clip-rule="evenodd" d="M88.6474 7.50548V7.95666C88.6474 9.47427 90.8213 10.4587 92.1338 9.22818C93.4463 7.99768 92.626 5.61871 90.6982 5.61871C89.7138 5.61871 88.6474 6.48006 88.6474 7.50548Z" fill="#13908B"/>
<path fill-rule="evenodd" clip-rule="evenodd" d="M92.626 29.5314C92.626 30.3928 93.3643 31.049 93.9385 31.049H94.3077C96.1124 31.049 96.1534 28.0138 94.1436 28.0138C93.3643 27.9728 92.626 28.7111 92.626 29.5314Z" fill="#13908B"/>
<path fill-rule="evenodd" clip-rule="evenodd" d="M87.1298 29.9005C87.1298 31.9924 90.165 31.9924 90.165 29.9005C90.165 29.1622 89.5087 28.465 88.8114 28.465C88.3192 28.465 87.9911 28.465 87.5399 28.9572C87.2938 29.1622 87.1298 29.4904 87.1298 29.9005Z" fill="#13908B"/>
<path fill-rule="evenodd" clip-rule="evenodd" d="M81.5515 28.506V28.9572C81.5515 30.1056 83.1101 30.7619 84.0125 29.9826C85.0379 29.0802 84.5047 27.2755 82.9871 27.2755C82.3718 27.3165 81.5515 27.9317 81.5515 28.506Z" fill="#13908B"/>
<path d="M114.942 73.3583C114.94 73.7604 114.939 74.0853 114.939 74.2806C115.099 74.1473 115.692 73.1477 116.178 72.329C116.439 71.8881 116.67 71.4997 116.785 71.3274L121.215 63.9034C122.199 62.1807 123.799 63.0831 123.963 64.0265C124.045 64.7238 124.045 70.4661 124.045 71.0403C124.045 71.6343 124.07 72.4997 124.098 73.4355V73.4549C124.149 75.1636 124.206 77.1028 124.127 78.0541C124.045 79.0385 122.65 79.6538 121.83 78.5463C121.527 78.1429 121.583 75.9211 121.613 74.7261C121.619 74.463 121.625 74.2497 121.625 74.1165C121.625 73.5628 121.604 73.0808 121.584 72.5989C121.563 72.117 121.543 71.635 121.543 71.0813V67.964C121.502 68.0051 121.461 68.0461 121.42 68.1281C121.297 68.2922 121.379 68.1691 121.297 68.3332L118.425 73.1732C118.334 73.2875 118.268 73.4146 118.199 73.5474C118.144 73.6525 118.088 73.7617 118.015 73.8705L115.349 78.3002C114.734 79.4487 113.544 79.4487 112.929 78.8334C112.417 78.351 112.458 77.4917 112.5 76.6303C112.515 76.32 112.53 76.0095 112.519 75.7162C112.51 75.6306 112.502 75.5521 112.494 75.4771C112.463 75.1926 112.437 74.9572 112.437 74.5677L112.355 64.1495C112.478 63.2471 113.709 62.5088 114.611 63.6163C114.917 63.9931 114.885 64.8566 114.849 65.8343C114.822 66.5595 114.793 67.3474 114.898 68.0461C114.964 68.5442 114.95 71.6494 114.942 73.3583Z" fill="#D1477B"/>
<path d="M93.1592 76.9877C93.0361 76.9877 92.9644 77.0082 92.8926 77.0287L92.8672 77.0359L92.8427 77.0425C92.834 77.0448 92.8252 77.047 92.8162 77.0491C92.7652 77.0609 92.7066 77.0697 92.626 77.0697H87.745C87.745 76.3314 87.704 64.5186 87.4989 64.1085C87.0477 63.1651 85.6942 63.0421 85.202 64.0675C84.9843 64.5338 85.0731 66.9564 85.1288 68.4767V68.4844L85.1297 68.5113C85.1354 68.664 85.1406 68.8072 85.1452 68.9379C85.1547 69.209 85.1609 69.4264 85.1609 69.5637C85.1609 70.8789 85.1815 72.1221 85.202 73.3603L85.2022 73.3672C85.2227 74.5979 85.243 75.8238 85.243 77.1107H79.9929C79.6981 77.1107 79.7172 76.509 79.7368 75.8906C79.7418 75.7347 79.7468 75.5777 79.7468 75.4291V71.6145C79.7468 71.2401 79.7256 70.9501 79.7048 70.6642C79.6846 70.3863 79.6647 70.1125 79.6647 69.7688L79.665 69.6851C79.6653 69.6473 79.6657 69.605 79.6663 69.5588C79.668 69.4157 79.6708 69.2342 79.6741 69.0249V69.0175C79.6975 67.5295 79.7425 64.6515 79.5417 64.1495C79.0905 62.96 77.1627 63.1651 77.1627 64.5597C77.1627 65.1134 77.1562 65.6834 77.1496 66.2606V66.266C77.1328 67.7389 77.1154 69.2579 77.2037 70.6711C77.2648 71.6078 77.2552 72.8981 77.245 74.2563V74.2729C77.2347 75.6456 77.2239 77.0864 77.2858 78.3002C77.3268 79.3257 77.983 79.4487 79.0495 79.4487C81.3568 79.4487 83.6945 79.408 86.0425 79.3672C88.4112 79.326 90.7903 79.2846 93.1592 79.2846C93.6452 79.2846 93.9549 79.2552 94.3122 79.2214L94.3752 79.2154C94.42 79.2111 94.4657 79.2069 94.5128 79.2026C95.046 79.2026 95.2921 79.0796 95.4971 78.7514C95.7722 78.3044 95.759 77.3962 95.7476 76.6067C95.746 76.4989 95.7445 76.3933 95.7437 76.2913L95.7434 76.239L95.7432 76.1674L95.6612 69.2356C95.6612 68.9311 95.6382 68.6959 95.6165 68.4749C95.5973 68.2789 95.5792 68.094 95.5792 67.882V64.9698C95.5792 64.3546 95.5792 64.1085 95.3331 63.7393C94.7589 62.919 93.5693 63.0831 93.1592 63.9034C92.9541 64.3136 93.0361 68.8254 93.0771 69.4406C93.0771 69.6204 93.0966 69.7223 93.1165 69.8269C93.1269 69.8813 93.1374 69.9363 93.1454 70.0034C93.1536 70.0724 93.1592 70.1542 93.1592 70.261V76.9877Z" fill="#D1477B"/>
<path fill-rule="evenodd" clip-rule="evenodd" d="M23.3489 115.133C22.7747 115.133 22.5696 115.174 22.2825 115.42C22.0364 115.625 21.8313 115.994 21.8313 116.405V119.44C21.8313 121.368 24.6614 121.163 24.6614 119.686V117.717H33.9722V119.235C33.9722 121.409 36.8844 121.409 36.8844 119.235L36.8846 119.163L36.885 119.108L36.8858 119.04C36.8865 118.989 36.8875 118.937 36.8886 118.885C36.8895 118.841 36.8906 118.797 36.8917 118.753C36.8944 118.651 36.8976 118.548 36.9008 118.444L36.9011 118.429V118.425C36.949 116.852 37.0013 115.133 35.5718 115.133H35.1207V101.105C35.1207 100.285 34.6285 99.6699 33.9722 99.6699H25.933C24.5334 99.6699 24.5781 101.24 24.6112 102.402C24.6159 102.568 24.6204 102.726 24.6204 102.869C24.6204 103.153 24.6213 103.431 24.6226 103.704L24.6265 104.409V104.435C24.6453 107.594 24.6603 110.121 23.8821 113.41L23.3489 115.133ZM27.5326 106.889V102.172H32.1675V115.133H26.3842L26.8353 113.287C27.2045 111.688 27.5326 108.57 27.5326 106.889Z" fill="#D1477B"/>
<path d="M39.1813 116.323V100.695C39.1813 100.162 39.8376 99.5058 40.5759 99.5058C42.0215 99.5058 42.0157 100.771 42.0118 101.6V101.603C42.0117 101.644 42.0115 101.683 42.0115 101.721V112.221C42.2656 111.967 42.8346 111.004 43.3381 110.153C43.6472 109.63 43.9317 109.148 44.1033 108.899C44.4517 108.345 44.7796 107.792 45.1075 107.239C45.4357 106.685 45.7643 106.13 46.1132 105.576L48.164 102.213C48.191 102.167 48.2238 102.11 48.2613 102.045L48.262 102.044C48.6246 101.416 49.4332 100.016 49.8046 99.7929C50.9121 99.0547 52.3887 99.6289 52.3887 101.475V116.036C52.3887 118.168 50.2968 118.127 49.7226 117.184C49.4765 116.774 49.4765 116.323 49.4765 115.666V105.084C49.2802 105.224 48.0679 107.262 47.2157 108.695C46.8214 109.358 46.5041 109.891 46.4003 110.047C46.1831 110.361 45.9943 110.674 45.8005 110.997C45.6649 111.222 45.5268 111.451 45.3748 111.688L42.3396 116.651C41.6833 117.922 40.4528 118.045 39.6735 117.348C39.4274 117.102 39.1813 116.774 39.1813 116.323Z" fill="#D1477B"/>
<path d="M98.0402 100.941V116.487C98.0402 118.004 100.952 118.579 100.952 116.036V109.719H107.597V116.2C107.597 118.414 110.509 118.209 110.509 116.364V100.982C110.509 99.1777 107.597 98.8906 107.597 101.146V107.176H100.911V101.229C100.911 98.8085 98.0402 99.1367 98.0402 100.941Z" fill="#D1477B"/>
<path d="M55.8751 116.487V100.777C55.8751 99.2597 58.3361 98.9726 58.7053 100.654C58.7731 100.959 58.7562 105.1 58.7487 106.923V107.025L58.7486 107.047L58.748 107.2C58.747 107.442 58.7463 107.619 58.7463 107.709C58.9103 107.654 59.038 107.563 59.1656 107.472C59.2294 107.427 59.2932 107.381 59.3615 107.34C59.7474 107.079 60.0735 106.868 60.3731 106.675C61.1559 106.169 61.7574 105.78 62.7659 104.92C62.8043 104.882 62.8506 104.839 62.8999 104.794C63.0089 104.695 63.1324 104.582 63.2171 104.469C64.5257 102.888 64.584 102.049 64.6325 101.352C64.657 101 64.679 100.684 64.8578 100.326C65.0219 99.957 65.514 99.5058 65.9652 99.5058C67.7289 99.5058 67.6879 101.146 67.4418 102.418C67.1136 104.059 66.4984 105.207 65.309 106.397C64.7347 106.971 64.0374 107.545 63.3812 107.996L67.5649 114.108C67.6241 114.197 67.681 114.283 67.7366 114.368C67.7966 114.46 67.855 114.551 67.9135 114.641C67.9714 114.73 68.0292 114.82 68.0884 114.911C68.1447 114.997 68.2022 115.084 68.2621 115.174C68.295 115.224 68.3287 115.271 68.3624 115.317L68.3954 115.362L68.4127 115.385L68.4189 115.393C68.6158 115.659 68.7953 115.901 68.7953 116.323C68.7953 117.225 68.2621 117.84 67.4828 117.84C66.5485 117.84 66.2793 117.397 65.8686 116.721L65.8011 116.61C65.1558 115.606 64.3017 114.365 63.4578 113.14C62.8533 112.262 62.254 111.392 61.7405 110.621C61.5764 110.334 61.2073 109.719 61.0022 109.596C60.7474 109.66 60.2617 109.987 59.7898 110.305C59.3505 110.602 58.9228 110.89 58.7053 110.949C58.7053 111.096 58.7092 111.364 58.7142 111.708V111.709C58.7374 113.296 58.7844 116.507 58.5822 116.979C58.008 118.291 55.8751 117.881 55.8751 116.487Z" fill="#D1477B"/>
<path fill-rule="evenodd" clip-rule="evenodd" d="M82.7 117.799C83.901 117.799 84.2253 116.776 84.6299 115.5C84.7504 115.12 84.8779 114.717 85.0379 114.313C85.0491 114.279 85.0602 114.248 85.0713 114.218C85.0858 114.179 85.1002 114.143 85.1141 114.108C85.1675 113.973 85.2149 113.853 85.243 113.657H92.0928C92.1338 114.026 93.1592 116.938 93.3643 117.184C94.4717 118.414 95.9073 117.512 95.9073 116.487C95.9073 115.769 95.0524 113.484 94.4629 111.908C94.2776 111.413 94.1187 110.988 94.0206 110.703L90.4521 100.695C90.0829 99.5879 88.6063 98.9726 87.4579 99.875C87.0508 100.18 86.756 101.075 86.527 101.769C86.4791 101.915 86.4341 102.051 86.3915 102.172L81.5105 115.871C81.1003 117.02 81.9207 117.799 82.7 117.799ZM88.5653 103.977H88.7294C88.7294 104.175 88.8074 104.392 88.8827 104.602L88.9087 104.675C88.9151 104.693 88.9214 104.711 88.9276 104.729C88.9452 104.78 88.9615 104.83 88.9755 104.879L89.5908 106.643C89.674 106.906 89.8654 107.461 90.0836 108.095C90.5104 109.332 91.0402 110.869 91.0673 111.114H86.1864C86.1864 110.825 86.2473 110.679 86.3262 110.489C86.3422 110.45 86.359 110.41 86.3762 110.366C86.3947 110.319 86.4136 110.268 86.4325 110.211L88.5653 103.977Z" fill="#D1477B"/>
<path fill-rule="evenodd" clip-rule="evenodd" d="M33.6852 75.6342C33.6852 74.7318 33.6031 74.0756 33.275 73.3372C31.9662 70.647 29.1108 70.6957 26.4224 70.7415L26.4194 70.7416C26.0756 70.7474 25.7346 70.7532 25.3998 70.7532L25.3178 66.6515C25.3178 66.3557 25.9762 66.376 26.6177 66.3957C26.7768 66.4006 26.9348 66.4055 27.0815 66.4055L31.1011 66.3644C32.6187 66.0363 32.0855 64.1085 31.1422 64.1085C30.6357 64.1085 30.1393 64.1068 29.6489 64.1052C27.7167 64.0986 25.8777 64.0924 23.8822 64.1905C23.267 64.2316 22.8568 64.6418 22.8158 65.257C22.7338 66.2004 22.7748 68.7434 22.8568 69.5637C22.9417 70.2708 22.9095 71.4851 22.8813 72.5475C22.8687 73.0256 22.8568 73.473 22.8568 73.8295C22.8568 74.5935 22.8776 75.2951 22.8983 75.9919C22.9186 76.6793 22.9388 77.3619 22.9388 78.0952C22.9388 78.2162 22.9374 78.3276 22.936 78.4309C22.9272 79.098 22.9228 79.4272 23.349 79.8179C23.718 80.1562 24.1101 80.1255 24.5772 80.089L24.5827 80.0886C24.6343 80.0845 24.6867 80.0804 24.7402 80.0768C24.7977 80.0729 24.8563 80.0694 24.9161 80.0671C24.967 80.0652 25.0189 80.064 25.0717 80.064C25.5562 80.0473 26.0712 80.0561 26.5996 80.0651C28.6658 80.1005 30.9354 80.1393 32.3726 78.6694C33.193 77.8491 33.6852 76.8647 33.6852 75.6342ZM26.2959 73.0349C27.7886 72.998 29.5643 72.9541 30.4449 73.6654C31.4703 74.4857 32.0445 77.8081 28.0659 77.8081H25.4819C25.4819 76.962 25.4611 76.1783 25.4405 75.3994C25.4201 74.63 25.3998 73.8654 25.3998 73.0501C25.6776 73.0501 25.979 73.0427 26.2928 73.0349H26.2959Z" fill="#D1477B"/>
<path d="M49.3535 80.105C48.5742 80.187 47.9589 79.7358 47.9589 78.8334C47.9589 77.9091 49.0162 77.7848 49.5566 77.7213L49.6074 77.7153L49.6505 77.7101L49.6827 77.7059L49.699 77.7037C49.7181 77.7011 49.7358 77.6984 49.7521 77.6956C49.772 77.6923 49.7896 77.6888 49.8047 77.685C50.543 77.3979 50.543 76.6186 50.543 75.5521C50.543 75.0394 50.5225 74.5882 50.502 74.137C50.4814 73.6858 50.4609 73.2347 50.4609 72.722V69.8098C50.4609 69.5412 50.4453 69.138 50.4269 68.6683C50.367 67.13 50.2794 64.8792 50.625 64.3136C50.707 64.1495 50.8711 64.0265 51.0352 63.9444C51.3223 63.8214 52.4708 63.7804 52.8399 63.7804C53.7429 63.7239 55.3644 63.7451 56.7958 63.7639C57.4449 63.7724 58.0549 63.7804 58.5412 63.7804C58.7487 63.7804 58.9583 63.7652 59.1641 63.7503C59.8535 63.7004 60.5001 63.6536 60.8792 64.1905C61.1758 64.6519 61.1546 65.4841 61.1348 66.2614V66.2669L61.1313 66.4059L61.1288 66.52C61.1277 66.5704 61.1268 66.6203 61.1262 66.6696L61.1255 66.7453C61.1253 66.7689 61.1252 66.7923 61.1252 66.8156L61.2073 75.4291C61.2073 75.9162 61.2274 76.3632 61.2477 76.8148C61.2684 77.2757 61.2893 77.7413 61.2893 78.2592C61.2893 80.228 59.2385 80.0639 58.8283 79.0385C58.6772 78.7061 58.7042 78.1734 58.7289 77.6863C58.7377 77.5122 58.7463 77.344 58.7463 77.1928C58.7463 77.0175 58.7278 76.9069 58.7084 76.7908C58.6869 76.6625 58.6642 76.5273 58.6642 76.2904L58.5822 66.0773H55.67C55.1316 66.0773 54.6768 66.0982 54.2265 66.1189C53.7852 66.1392 53.3473 66.1593 52.8399 66.1593C52.8399 66.3234 52.8604 66.3952 52.8809 66.4669C52.9014 66.5387 52.9219 66.6105 52.9219 66.7746V71.2044L52.9221 71.2836C52.9224 71.3247 52.9227 71.367 52.9232 71.4104C52.9237 71.4541 52.9244 71.4989 52.9252 71.5448C52.9269 71.6439 52.9291 71.7481 52.9319 71.8566C52.9386 72.1225 52.948 72.4145 52.958 72.7235C53.0225 74.7197 53.1097 77.423 52.6348 78.3413C51.9583 79.7319 50.9028 79.8827 49.6895 80.056L49.6866 80.0564L49.5201 80.0803C49.4648 80.0883 49.4093 80.0965 49.3535 80.105Z" fill="#D1477B"/>
<path fill-rule="evenodd" clip-rule="evenodd" d="M98.2453 69.2356C98.2453 69.9381 98.2661 70.5781 98.2868 71.2134V71.2267C98.3071 71.848 98.3273 72.4652 98.3273 73.1322C98.3273 75.4291 99.0656 77.3979 100.87 78.5874C103.167 80.146 106.285 79.7769 108.253 77.726C109.484 76.4545 109.853 74.4447 109.771 72.722C109.731 72.0264 109.74 71.3596 109.748 70.7136C109.773 68.6932 109.796 66.8756 108.335 65.0109C107.474 63.9034 105.956 63.0831 104.398 63.0831C102.347 63.0831 100.993 63.4112 99.6809 64.9288C98.8605 65.9132 98.2453 67.4308 98.2453 69.2356ZM103.742 65.339C104.972 65.339 105.833 65.5441 106.49 66.6926C106.982 67.5129 107.228 68.5793 107.228 69.6047C107.228 69.9932 107.236 70.3936 107.244 70.7976C107.272 72.2279 107.302 73.7035 106.982 74.8549C106.654 76.0033 105.71 77.1518 104.316 77.1518C102.716 77.1518 101.978 76.8237 101.198 75.224C100.768 74.3271 100.777 73.0535 100.786 71.7602C100.787 71.575 100.788 71.3893 100.788 71.2044C100.788 71.0441 100.785 70.8802 100.779 70.7131C100.777 70.6176 100.773 70.5211 100.77 70.4238C100.735 69.4263 100.696 68.3338 101.116 67.2668C101.568 66.3234 102.429 65.339 103.742 65.339Z" fill="#D1477B"/>
<path fill-rule="evenodd" clip-rule="evenodd" d="M40.7421 63.7667C40.8069 63.7646 40.8645 63.7628 40.9144 63.7599C40.9786 63.756 41.0302 63.7502 41.0681 63.7394C41.3142 63.6984 41.9295 63.6984 42.5447 63.8624C43.8162 64.1905 45.0057 64.9289 45.703 65.9953C46.8941 67.7666 46.8799 68.9012 46.8627 70.2795C46.8568 70.7524 46.8506 71.2539 46.8925 71.8196C47.1386 74.8139 46.8925 76.9057 45.1288 78.6694C43.7342 80.064 41.6833 80.4331 39.7556 80.023C39.2634 79.8999 38.8942 79.7358 38.4841 79.5308C37.7048 79.1206 37.1306 78.5874 36.6384 77.8901C35.4703 76.2699 35.4791 74.442 35.4883 72.5337C35.4891 72.3646 35.4899 72.1949 35.4899 72.0247C35.5051 71.5834 35.4808 71.2154 35.4567 70.8517C35.416 70.2353 35.3761 69.6311 35.5309 68.7024C35.818 66.8566 36.7204 65.339 38.279 64.4366C39.3774 63.809 40.2596 63.7816 40.7421 63.7667ZM38.0329 69.7688V73.5833C38.0329 75.6342 38.7712 77.2749 40.3708 77.8081C41.9705 78.3003 43.6522 77.4799 44.2264 75.5932C44.3495 75.183 44.5546 73.7474 44.5135 73.3783C44.5068 73.3313 44.5001 73.291 44.4936 73.2547C44.4876 73.2213 44.4818 73.1913 44.4762 73.1629C44.4508 73.0331 44.4315 72.9343 44.4315 72.681C44.4315 72.3246 44.4398 71.9766 44.448 71.6363C44.4877 69.979 44.5229 68.5049 43.5701 67.1437C42.9139 66.2004 42.0526 66.0363 40.9451 66.0363C39.1403 66.0363 38.0329 67.9231 38.0329 69.7688Z" fill="#D1477B"/>
<path fill-rule="evenodd" clip-rule="evenodd" d="M74.9888 75.4701C74.9888 73.7884 74.9068 72.681 73.4713 71.4095C72.1152 70.1925 69.7569 70.243 67.7208 70.2866C67.3551 70.2944 66.9998 70.302 66.6625 70.302L66.6627 70.2433L66.6628 70.2066C66.6633 70.1414 66.664 70.0646 66.665 69.9778L66.6694 69.6292C66.6901 68.0579 66.7336 64.7559 66.4574 64.2725C66.3754 64.1085 66.2113 63.9444 66.0472 63.8214C65.1038 63.2061 63.7503 63.6573 64.1194 66.2003C64.2015 66.9386 64.1605 70.9173 64.1194 72.1888C64.1194 72.5579 64.14 72.8655 64.1605 73.1732C64.181 73.4808 64.2015 73.7884 64.2015 74.1576C64.2015 74.3126 64.2009 74.4698 64.2 74.6289L64.1978 74.924L64.1925 75.4939C64.1833 76.4235 64.174 77.3783 64.2015 78.2592C64.2425 78.8745 64.4476 79.3257 64.9398 79.4897C65.407 79.6821 65.7637 79.6351 66.1581 79.5831C66.3522 79.5575 66.5555 79.5307 66.7855 79.5307C67.3339 79.5232 67.8368 79.5309 68.306 79.538H68.3075C70.4001 79.5698 71.8266 79.5915 73.6353 78.2182C73.9634 77.9721 74.3326 77.4389 74.5377 77.0697C74.7427 76.7826 74.9888 75.9213 74.9888 75.4701ZM69.5746 77.3158H66.7445V72.5989H69.7797C71.1743 72.5989 72.4458 73.3372 72.4458 74.7318V75.183C72.4868 76.6186 71.0923 77.3158 69.5746 77.3158Z" fill="#D1477B"/>
<path d="M113.873 102.213C113.011 102.213 112.437 101.762 112.437 100.859C112.437 100.285 112.929 99.6289 113.462 99.5879H124.209C125.275 99.5879 125.849 101.311 124.742 101.967C124.344 102.22 124.074 102.218 123.565 102.214C123.497 102.213 123.425 102.213 123.347 102.213H120.23C120.395 102.576 120.348 107.085 120.323 109.43V109.438C120.317 110.001 120.312 110.44 120.312 110.662C120.312 110.848 120.318 111.16 120.325 111.549V111.55C120.357 113.227 120.414 116.331 120.148 116.897C119.533 118.373 117.441 117.84 117.441 116.405V102.213H113.873Z" fill="#D1477B"/>
<path d="M69.3696 100.859C69.3696 101.639 69.9848 102.213 70.7642 102.213H74.4966V116.61C74.4966 117.102 75.0709 117.758 75.9323 117.758C76.6705 117.758 77.2858 117.061 77.2858 116.323V102.213H80.8542C82.864 102.213 82.6589 99.6289 81.1003 99.6289H70.518C69.9438 99.6289 69.3696 100.285 69.3696 100.859Z" fill="#D1477B"/>
<path fill-rule="evenodd" clip-rule="evenodd" d="M71.5024 86.7497V86.2985C71.5024 85.6012 72.5688 85.191 73.1021 85.8883C73.2661 86.0934 73.3071 86.3805 73.3071 86.7497C75.0709 86.7497 76.2604 87.611 76.2604 89.3337C76.2604 89.4436 76.2614 89.5511 76.2629 89.6566C76.2649 89.7876 76.2677 89.9154 76.2704 90.04C76.2965 91.2383 76.3163 92.1489 75.522 92.9432C74.8658 93.5994 74.2505 93.6815 73.3071 93.6815C73.3071 94.3787 73.1021 94.912 72.3228 94.912C71.4976 94.912 71.5006 94.159 71.5023 93.7352L71.5024 93.6815C69.6977 93.6815 68.4672 92.8611 68.4672 90.9333C68.4672 90.7707 68.4642 90.6049 68.4611 90.4378C68.4415 89.3828 68.421 88.2725 69.1645 87.529C69.9028 86.7907 70.518 86.7497 71.5024 86.7497ZM73.3482 92.2459H73.6353C74.2505 92.2459 74.5377 91.5076 74.5787 90.8513C74.5787 90.6767 74.5814 90.5069 74.584 90.3432C74.6042 89.0846 74.6185 88.1852 73.3482 88.1852V92.2459ZM70.1879 90.4276L70.1886 90.4885C70.1893 90.5448 70.1899 90.5977 70.1899 90.6462C70.1899 92.0408 70.6821 92.2459 71.4614 92.2459V88.1852H71.0923C70.1581 88.1852 70.1771 89.6149 70.1879 90.4276Z" fill="#D1477B"/>
<path d="M110.919 86.3805V94.0916C110.919 94.8709 112.314 95.6092 112.97 93.9686C113.02 93.8195 113.085 93.6855 113.155 93.5393C113.201 93.444 113.25 93.3435 113.298 93.2303C113.462 92.7791 114.775 89.7028 115.021 89.4568V94.1737C115.062 95.1991 116.867 95.1991 116.867 93.9276V86.5446C116.867 85.9293 116.498 85.5602 115.964 85.5602C115.132 85.5602 114.858 86.2933 114.563 87.0832L114.52 87.1984L114.488 87.2829L113.175 90.2361C113.161 90.2752 113.147 90.3131 113.134 90.3499L113.113 90.4119C113.03 90.6535 112.965 90.841 112.765 90.9744V86.3395C112.642 85.191 110.919 85.3961 110.919 86.3805Z" fill="#D1477B"/>
<path d="M118.138 94.0916V86.3805C118.138 85.3961 119.861 85.191 120.025 86.4215V91.1384C120.134 91.0017 120.353 90.4822 120.523 90.0781C120.608 89.876 120.681 89.7029 120.722 89.6208L121.707 87.3239C121.741 87.2365 121.774 87.1505 121.806 87.0664C122.12 86.2428 122.365 85.6012 123.183 85.6012C123.758 85.6012 124.086 86.0524 124.086 86.5856V93.9686C124.086 95.2401 122.281 95.2401 122.24 94.2147V89.5388C121.953 89.7439 120.353 93.5174 120.189 93.9686C119.574 95.5682 118.138 94.871 118.138 94.0916Z" fill="#D1477B"/>
<path d="M77.3678 86.2985V94.1327C77.3678 94.7889 78.6393 95.5682 79.4186 93.9686L81.4285 89.4978V94.2147C81.6335 95.1991 83.2332 95.076 83.2332 94.1737V86.1344C83.2332 85.7243 81.8796 84.7809 81.1823 86.5446L79.8698 89.4978C79.8515 89.5405 79.8278 89.5977 79.7999 89.6648L79.7966 89.6728C79.6365 90.0589 79.3459 90.76 79.1725 90.9334V86.2985C79.0495 85.15 77.3678 85.3961 77.3678 86.2985Z" fill="#D1477B"/>
<path fill-rule="evenodd" clip-rule="evenodd" d="M42.9959 92.1639V88.3493C42.9959 86.6676 44.0623 85.4781 45.744 85.4781C47.9179 85.4781 48.9433 86.4215 48.9433 88.6774C48.9433 88.7463 48.9436 88.8152 48.9442 88.8843C48.9449 88.9895 48.9464 89.0948 48.9481 89.2002C48.9501 89.3245 48.9527 89.4489 48.9554 89.5731L48.9608 89.809C49.0226 92.4746 49.0811 94.994 45.9901 94.994C44.1443 94.994 42.9959 93.9686 42.9959 92.1639ZM44.7947 90.6949L44.7949 90.7042C44.798 90.8897 44.8007 91.0517 44.8007 91.1795C44.8007 92.1639 44.8417 93.5584 45.785 93.5174C46.6053 93.5174 47.0156 93.1893 47.0156 91.9998V88.4313C47.0156 86.4626 45.4979 86.7497 45.1288 87.2419C44.7457 87.7992 44.7766 89.6284 44.7947 90.6949Z" fill="#D1477B"/>
<path d="M36.2281 86.2985V94.1326C36.2281 94.994 37.6637 95.117 37.9918 94.4608C38.0908 94.2298 38.0836 93.8395 38.077 93.4821L38.0768 93.4761C38.0753 93.3914 38.0739 93.3086 38.0739 93.2303V91.9178C38.0739 91.799 38.071 91.6922 38.0673 91.5962C38.0646 91.5271 38.0614 91.4635 38.0585 91.4051C38.0447 91.1279 38.0367 90.9672 38.1122 90.8754C38.2164 90.7488 38.4794 90.7528 39.1047 90.7624C39.3082 90.7656 39.5502 90.7693 39.8375 90.7693C40.1396 90.7693 40.1121 91.2635 40.0922 91.6229C40.0877 91.7028 40.0836 91.776 40.0836 91.8357V93.1483C40.0836 93.2098 40.079 93.2875 40.0739 93.3756C40.0409 93.9333 39.9831 94.912 40.904 94.912C41.4372 94.912 41.8884 94.5018 41.8884 94.2147V86.2985C41.8884 85.5192 40.5759 85.191 40.1247 86.0114C39.9781 86.2495 40.0034 86.9539 40.0287 87.6607C40.0601 88.5364 40.0916 89.4157 39.7965 89.4157C39.4884 89.4157 39.2331 89.4204 39.0216 89.4242C38.4313 89.4349 38.1828 89.4394 38.0825 89.3197C38.0096 89.2328 38.0151 89.0802 38.0245 88.8167C38.0283 88.7081 38.0328 88.5807 38.0328 88.4313V87.2008C38.0328 87.1173 38.0374 87.0254 38.0421 86.929C38.0724 86.3156 38.1118 85.5192 37.0484 85.5192C36.6382 85.5602 36.2281 85.8883 36.2281 86.2985Z" fill="#D1477B"/>
<path d="M104.193 94.1327V86.2985C104.193 85.4371 105.587 85.2731 105.874 86.0114C106.01 86.2822 105.978 88.202 105.962 89.1177C105.959 89.3113 105.956 89.46 105.956 89.5388C106.059 89.4569 106.13 89.4057 106.202 89.3545C106.237 89.3298 106.272 89.3049 106.31 89.2768C106.325 89.2651 106.342 89.2529 106.359 89.2398L106.389 89.2164L106.419 89.1929L106.449 89.1696C106.531 89.0876 106.602 89.0363 106.674 88.9851C106.72 88.9525 106.766 88.9199 106.814 88.8794C106.841 88.8562 106.87 88.8304 106.9 88.8005C107.599 88.0405 107.622 87.2129 107.638 86.6684C107.643 86.4782 107.647 86.3226 107.679 86.2164C107.925 85.3141 109.32 85.3551 109.525 86.2575C109.689 87.0368 109.279 89.0466 108.253 89.7439C108.345 90.1292 108.724 90.9251 109.115 91.7458L109.116 91.7469C109.598 92.76 110.099 93.8112 110.099 94.1737C110.099 94.912 108.705 95.3632 108.253 94.2557L106.818 90.9334C106.675 91.0353 106.542 91.1373 106.41 91.2392L106.407 91.2411C106.274 91.3436 106.141 91.4461 105.997 91.5486C105.997 91.6448 106.001 91.7932 106.006 91.9738C106.029 92.7942 106.069 94.2813 105.833 94.5838C105.341 95.1581 104.193 94.912 104.193 94.1327Z" fill="#D1477B"/>
<path d="M24.0873 88.8005C24.9495 88.8005 25.0373 88.3397 25.1271 87.8687C25.2209 87.3763 25.3168 86.8727 26.3022 86.8727C27.2969 86.8727 27.2454 88.2573 27.2138 89.1077L27.2092 89.2357L27.2079 89.2772C27.2059 89.3422 27.2045 89.4025 27.2045 89.4568C27.1174 89.4568 27.0246 89.4542 26.9288 89.4515C26.2574 89.433 25.4409 89.4105 25.4409 90.2361C25.4409 90.4822 25.5229 90.6052 25.6459 90.6873C25.9627 90.9407 26.304 90.925 26.7452 90.9047C26.8753 90.8987 27.0141 90.8923 27.1635 90.8923L27.1636 90.9566L27.164 91.0224C27.1644 91.0686 27.1649 91.1145 27.1655 91.16C27.1664 91.2321 27.1677 91.3033 27.1688 91.3734C27.189 92.5761 27.2041 93.4764 25.933 93.4764C25.3165 93.4764 25.2014 93.0329 25.0828 92.5759C24.9568 92.0904 24.8268 91.5896 24.0873 91.5896C22.2826 91.5896 23.1439 94.953 25.933 94.953C26.9995 94.953 27.7788 94.7479 28.394 94.0506C29.1656 93.1784 29.1141 91.2908 29.0697 89.6673C29.0598 89.3059 29.0503 88.9576 29.0503 88.6364C29.0503 84.3707 24.4974 85.109 23.5541 86.5856C23.1439 87.4059 22.8978 88.8005 24.0873 88.8005Z" fill="#D1477B"/>
<path fill-rule="evenodd" clip-rule="evenodd" d="M63.5862 92.9842C63.5042 93.6404 63.2991 94.912 62.4378 94.912C61.9456 94.912 61.4944 94.6248 61.4944 94.1737C61.4564 93.9454 62.2297 91.2479 62.473 90.3993L62.4749 90.3926L62.4753 90.3916L62.5198 90.2361L63.6273 86.2164C63.7503 85.8473 64.1605 85.5602 64.6527 85.5602C65.6783 85.5602 65.8596 86.3692 66.0763 87.3358C66.0936 87.413 66.1111 87.4911 66.1293 87.57C66.1794 87.7607 66.3131 88.2362 66.4858 88.8506C67.019 90.7472 67.924 93.9668 67.893 94.2147C67.852 94.6248 67.4418 94.912 66.9496 94.912C66.0472 94.912 65.8011 93.5174 65.8011 92.9842H63.5862ZM65.391 91.5896L64.6527 88.8415L63.9554 91.5896H65.391Z" fill="#D1477B"/>
<path d="M97.2609 88.2263V92.2869C97.2609 95.4042 100.911 95.5272 102.306 94.3787C102.47 94.2557 102.757 93.8455 102.839 93.6405C103.906 91.4256 101.445 91.1384 101.24 92.574C101.075 93.6405 100.706 93.6405 100.009 93.6405C99.2297 93.6405 99.1066 92.574 99.1066 91.7537V88.9235C99.1066 87.2829 99.4348 86.9958 100.419 86.9958C100.994 86.9958 101.097 87.4376 101.201 87.8848C101.267 88.1714 101.334 88.4602 101.527 88.6364C102.142 89.2107 103.7 89.0056 102.921 87.0778C101.978 84.7398 97.2609 84.7809 97.2609 88.2263Z" fill="#D1477B"/>
<path fill-rule="evenodd" clip-rule="evenodd" d="M56.0802 94.1737V86.3805C56.0802 85.5163 57.3329 85.5552 58.4144 85.5888C58.6161 85.5951 58.8118 85.6012 58.9924 85.6012C61.5764 85.6012 62.4788 88.9646 60.9202 90.6462C60.1747 91.4702 59.0913 91.4684 58.0651 91.4667L57.926 91.4666V94.1737C57.926 95.1581 56.0802 95.1581 56.0802 94.1737ZM57.926 90.031H58.3771C59.1974 90.031 59.7717 89.6208 59.7717 88.8415C59.7717 87.2829 59.4025 87.0778 57.926 87.0778V90.031Z" fill="#D1477B"/>
<path d="M84.3816 86.3805V89.4157C84.3816 91.4255 85.8992 91.9998 87.4578 91.5896C87.5831 91.5583 87.6666 91.5269 87.7379 91.5002C87.8532 91.4569 87.9366 91.4255 88.1141 91.4255C88.1141 91.4668 88.1133 91.5208 88.1118 91.5852C88.11 91.665 88.1074 91.7609 88.1044 91.8687C88.0809 92.712 88.0372 94.2839 88.2372 94.5838C88.6884 95.1991 89.9188 94.994 89.9188 94.1736V86.3395C89.9188 85.4371 88.4423 85.3141 88.1551 86.0934C88.0565 86.3563 88.0897 88.437 88.1067 89.5064V89.5075C88.1109 89.7719 88.1141 89.9744 88.1141 90.072C88.0988 90.0758 88.0747 90.0844 88.0435 90.0961L87.9959 90.1142C87.6491 90.2465 86.7452 90.5915 86.3914 89.99C86.2684 89.7849 86.2684 89.6618 86.2684 89.3337V86.2985C86.0223 85.191 84.3816 85.3961 84.3816 86.3805Z" fill="#D1477B"/>
<path d="M91.3135 94.0916V86.3805C91.3135 85.9703 91.7646 85.6012 92.1338 85.6832H95.6202C96.6456 85.6832 96.6046 87.1188 95.5382 87.1188H93.1182V89.2517C93.1182 89.543 93.6124 89.5121 94.1877 89.4762C94.9892 89.426 95.9484 89.3661 95.9484 90.154C95.9484 90.9526 94.9765 90.9144 93.887 90.8715C93.7668 90.8668 93.6453 90.862 93.5235 90.8583C93.3882 90.8542 93.2526 90.8513 93.1182 90.8513V93.4354H95.5382C96.6046 93.4354 96.6456 94.8709 95.6202 94.8709H92.1338C91.7646 94.8709 91.3135 94.5018 91.3135 94.0916Z" fill="#D1477B"/>
<path d="M30.5679 87.0778H31.6343V94.1737C31.6343 95.1581 33.48 95.1581 33.48 94.1737V87.0778C33.5506 87.0778 33.6348 87.0803 33.7281 87.083C34.3948 87.1026 35.5308 87.136 35.5308 86.3805C35.5308 86.0114 35.1617 85.6012 34.7515 85.6012H30.3217C29.4604 85.6012 29.1733 87.0778 30.5679 87.0778Z" fill="#D1477B"/>
<path d="M50.0918 94.1737V86.3805C50.0918 85.9703 50.502 85.6012 50.9531 85.6422H54.7677C55.424 85.6422 55.7521 86.5446 55.1368 86.9137C54.7457 87.1419 53.4734 87.111 52.556 87.0887C52.3191 87.083 52.1059 87.0778 51.9376 87.0778V94.1737C51.9376 95.1581 50.0918 95.1581 50.0918 94.1737Z" fill="#D1477B"/>
<path fill-rule="evenodd" clip-rule="evenodd" d="M119.287 83.2633C119.287 85.5192 122.937 85.232 122.937 83.4273C122.937 82.8941 122.609 82.8941 122.24 82.8941C121.338 82.8941 122.117 83.7965 120.927 83.7965C120.312 83.7965 120.763 82.8941 119.779 82.8941C119.574 82.8941 119.287 83.0172 119.287 83.2633Z" fill="#D1477B"/>
<path fill-rule="evenodd" clip-rule="evenodd" d="M118.056 61.7705C118.384 61.7705 118.959 61.6885 119.246 61.6065C121.297 60.9912 122.24 58.3662 120.271 58.3662C119.533 58.3662 119.574 59.2275 118.959 59.6377C118.507 59.9658 117.277 60.1299 116.744 59.1045C116.046 57.7919 114.898 58.4072 114.816 59.2685C114.734 60.0478 115.718 61.0322 116.457 61.4014C116.826 61.5654 117.564 61.7705 118.056 61.7705Z" fill="#D1477B"/>
</svg>
